<?xml version="1.0" encoding="UTF-8" standalone="no"?>
<!-- Created with Inkscape (http://www.inkscape.org/) -->

<svg
   width="210.52927mm"
   height="30.377474mm"
   viewBox="0 0 210.52927 30.377474"
   version="1.1"
   id="svg1"
   xmlns:xlink="http://www.w3.org/1999/xlink"
   xmlns="http://www.w3.org/2000/svg"
   xmlns:svg="http://www.w3.org/2000/svg">
  <defs
     id="defs1">
    <linearGradient
       id="linearGradient100">
      <stop
         style="stop-color:#393e46;stop-opacity:1;"
         offset="0"
         id="stop100" />
      <stop
         style="stop-color:#393e46;stop-opacity:0;"
         offset="0.89432216"
         id="stop101" />
    </linearGradient>
    <linearGradient
       id="linearGradient84">
      <stop
         style="stop-color:#f2ede6;stop-opacity:1;"
         offset="0"
         id="stop84" />
      <stop
         style="stop-color:#222831;stop-opacity:0;"
         offset="1"
         id="stop85" />
    </linearGradient>
    <linearGradient
       xlink:href="#linearGradient84"
       id="linearGradient85"
       x1="206.50987"
       y1="14.924153"
       x2="101.45891"
       y2="14.924153"
       gradientUnits="userSpaceOnUse" />
    <linearGradient
       xlink:href="#linearGradient100"
       id="linearGradient101"
       x1="0"
       y1="14.924153"
       x2="128.06247"
       y2="14.924153"
       gradientUnits="userSpaceOnUse" />
  </defs>
  <g
     id="layer1"
     transform="translate(0.2645832,0.2645835)">
    <path
       id="rect1"
       style="fill:#222831;fill-opacity:1;stroke:none;stroke-width:0.352778;stroke-dasharray:none;stroke-opacity:1"
       d="M 3.0509766,0 C 1.3607356,0 0,1.3607356 0,3.0509766 V 26.797331 c 0,1.690241 1.3607356,3.050976 3.0509766,3.050976 H 206.94913 c 1.69024,0 3.05097,-1.360735 3.05097,-3.050976 V 3.0509766 C 210.0001,1.3607356 208.63937,0 206.94913,0 Z" />
    <path
       id="path49-3-7-3"
       style="baseline-shift:baseline;display:inline;overflow:visible;opacity:1;vector-effect:none;fill:url(#linearGradient101);stroke:none;enable-background:accumulate;stop-color:#000000;stop-opacity:1"
       d="M 3.0509766,0 C 2.6063825,0 2.1847722,0.0940243 1.804541,0.2635498 H 3.4509521 V 3.4509521 H 0 V 3.6328532 H 3.4509521 V 6.8223226 H 0 v 0.1813843 h 3.4509521 v 2.9827636 0.031006 H 0 v 0.529167 h 3.4509521 v 2.89078 H 0 v 0.181901 h 3.4509521 v 3.189469 H 0 v 0.181384 h 3.4509521 v 2.810682 H 0 v 0.529166 h 3.4509521 v 2.921786 H 0 v 0.181901 h 3.4509521 v 3.189469 H 0 v 0.17415 0.0016 0.0057 h 3.4509521 v 2.779676 H 1.8029907 c 0.3806142,0.169938 0.8028186,0.264066 1.2479859,0.264066 h 0.3999755 0.1819011 3.1894694 0.1813843 6.4667891 0.181901 3.187402 0.181901 5.847188 0.181901 3.187403 0.181901 6.6151 0.183451 3.187403 0.181901 6.230627 0.183451 3.187403 0.181901 6.466788 0.181385 3.187402 0.183968 5.845638 0.181385 3.187402 0.183968 6.613033 0.183451 3.187919 0.181385 5.996016 0.181901 3.187403 0.183451 6.464722 0.183968 3.187402 0.181384 5.845639 0.18397 3.1874 0.18138 6.61562 0.18139 3.18946 0.18191 5.99394 0.18346 3.18792 0.18138 3.04478 v -5.16e-4 h 0.26406 v -3.043226 h 0.11886 v -0.181384 h -0.11886 v -3.189469 h 0.11886 v -0.181901 h -0.11886 v -6.261634 h 0.11886 v -0.181384 h -0.11886 V 13.61939 h 0.11886 v -0.181901 h -0.11886 V 7.0037069 h 0.11886 V 6.8223226 h -0.11886 V 3.6328532 h 0.11886 V 3.4509521 h -0.11886 V 0 h -0.26406 -3.04478 -0.18138 -3.18792 -0.18346 -5.99394 -0.18191 -3.18946 -0.18139 -6.61562 -0.18138 -3.1874 -0.18397 H 95.521301 95.339917 92.152515 91.968547 85.503825 85.320374 82.132971 81.95107 75.955054 75.773669 72.58575 72.402299 65.789266 65.605298 62.417896 62.236511 56.390873 56.206905 53.019503 52.838118 46.37133 46.189429 43.002026 42.818575 36.587948 36.406047 33.218644 33.035193 26.420093 26.238192 23.050789 22.868888 17.0217 16.839799 13.652397 13.470496 7.0037069 6.8223226 3.6328532 3.4509521 Z M 3.6328532,0.2635498 H 6.8223226 V 3.4509521 H 3.6328532 Z m 3.3708537,0 H 10.017476 V 3.4509521 H 7.0037069 Z m 3.5429361,0 h 2.923853 v 3.1874023 h -2.923853 z m 3.105754,0 h 3.187402 v 3.1874023 h -3.187402 z m 3.369303,0 h 2.779159 V 3.4509521 H 19.417936 17.0217 Z m 3.308325,0 h 2.538863 v 3.1874023 h -2.41794 -0.120923 z m 2.720764,0 h 3.187403 v 3.1874023 h -3.187403 z m 3.369304,0 h 3.164148 v 3.1874023 h -3.164148 z m 3.693314,0 h 2.921786 v 3.1874023 h -2.921786 z m 3.105237,0 h 3.187403 v 3.1874023 h -3.187403 z m 3.369304,0 h 2.779158 v 3.1874023 h -2.779158 z m 3.308325,0 h 2.922302 v 3.1874023 h -2.80293 -0.119372 z m 3.105753,0 h 3.187403 v 3.1874023 h -3.187403 z m 3.369304,0 h 2.779158 V 3.4509521 H 46.37133 Z m 3.308325,0 h 3.158463 v 3.1874023 h -3.03909 -0.119373 z m 3.339848,0 h 3.187402 v 3.1874023 h -3.187402 z m 3.37137,0 h 2.542481 v 3.1874023 h -0.148312 -2.394169 z m 3.072164,0 h 2.773474 v 3.1874023 h -2.41794 -0.355534 z m 2.954859,0 h 3.187402 v 3.1874023 h -3.187402 z m 3.37137,0 h 2.92747 v 3.1874023 h -2.92747 z m 3.456637,0 h 3.156396 v 3.1874023 h -3.156396 z m 3.339847,0 h 3.187919 V 3.4509521 H 72.58575 Z m 3.369304,0 h 2.545064 v 3.1874023 h -2.545064 z m 3.074231,0 h 2.921785 v 3.1874023 h -2.566251 -0.355534 z m 3.103686,0 h 3.187403 v 3.1874023 h -3.187403 z m 3.370854,0 h 2.779158 v 3.1874023 h -2.779158 z m 3.308842,0 h 3.15588 v 3.1874023 h -3.037024 -0.118856 z m 3.339848,0 h 3.187402 v 3.1874023 h -3.187402 z m 3.368786,0 h 2.542998 v 3.1874023 h -0.148312 -2.394686 z m 3.072681,0 h 2.772958 v 3.1874023 h -2.417941 -0.355017 z m 2.956928,0 h 3.1874 v 3.1874023 h -3.1874 z m 3.36878,0 h 2.92799 v 3.1874023 h -2.92799 z m 3.45716,0 h 3.15846 v 3.1874023 h -3.15846 z m 3.33985,0 h 3.18946 v 3.1874023 h -3.18946 z m 3.37137,0 h 2.54299 v 3.1874023 h -2.54299 z m 3.07216,0 h 2.92178 v 3.1874023 h -2.56625 -0.35553 z m 3.10524,0 h 3.18792 v 3.1874023 h -3.18792 z m 3.3693,0 h 2.77916 v 3.1874023 h -2.77916 z M 3.6328532,3.6328532 H 6.8223226 V 6.8223226 H 3.6328532 Z m 3.3708537,0 H 10.017476 V 6.8223226 H 7.0037069 Z m 3.5429361,0 h 2.923853 v 3.1894694 h -2.923853 z m 3.105754,0 h 3.187402 v 3.1894694 h -3.187402 z m 3.369303,0 h 2.396236 0.382923 V 6.8223226 H 19.417936 17.0217 Z m 3.308325,0 h 0.120923 2.41794 v 3.1894694 h -2.41794 -0.120923 z m 2.720764,0 h 3.187403 v 3.1894694 h -3.187403 z m 3.369304,0 h 3.164148 v 3.1894694 h -3.164148 z m 3.693314,0 h 2.921786 v 3.1894694 h -2.921786 z m 3.105237,0 h 3.187403 v 3.1894694 h -3.187403 z m 3.369304,0 h 2.779158 v 3.1894694 h -2.779158 z m 3.308325,0 h 0.119372 2.80293 v 3.1894694 h -2.80293 -0.119372 z m 3.105753,0 h 3.187403 v 3.1894694 h -3.187403 z m 3.369304,0 h 2.779158 V 6.8223226 H 46.37133 Z m 3.308325,0 h 0.119373 3.03909 v 3.1894694 h -3.03909 -0.119373 z m 3.339848,0 h 3.187402 v 3.1894694 h -3.187402 z m 3.37137,0 h 2.394169 0.148312 v 3.1894694 h -0.148312 -2.394169 z m 3.072164,0 h 0.355534 2.41794 v 3.1894694 h -2.41794 -0.355534 z m 2.954859,0 h 3.187402 v 3.1894694 h -3.187402 z m 3.37137,0 h 2.92747 v 3.1894694 h -2.92747 z m 3.456637,0 h 3.156396 v 3.1894694 h -3.156396 z m 3.339847,0 h 3.187919 V 6.8223226 H 72.58575 Z m 3.369304,0 h 2.545064 v 3.1894694 h -2.545064 z m 3.074231,0 h 0.355534 2.566251 v 3.1894694 h -2.566251 -0.355534 z m 3.103686,0 h 3.187403 v 3.1894694 h -3.187403 z m 3.370854,0 h 2.779158 v 3.1894694 h -2.779158 z m 3.308842,0 h 0.118856 3.037024 v 3.1894694 h -3.037024 -0.118856 z m 3.339848,0 h 3.187402 v 3.1894694 h -3.187402 z m 3.368786,0 h 2.394686 0.148312 v 3.1894694 h -0.148312 -2.394686 z m 3.072681,0 h 0.355017 2.417941 v 3.1894694 h -2.417941 -0.355017 z m 2.956928,0 h 3.1874 v 3.1894694 h -3.1874 z m 3.36878,0 h 2.92799 v 3.1894694 h -2.92799 z m 3.45716,0 h 3.15846 v 3.1894694 h -3.15846 z m 3.33985,0 h 3.18946 v 3.1894694 h -3.18946 z m 3.37137,0 h 2.54299 v 3.1894694 h -2.54299 z m 3.07216,0 h 0.35553 2.56625 v 3.1894694 h -2.56625 -0.35553 z m 3.10524,0 h 3.18792 v 3.1894694 h -3.18792 z m 3.3693,0 h 2.77916 v 3.1894694 h -2.77916 z M 3.6328532,7.0037069 h 3.1894694 v 2.9827636 0.031006 H 3.6328532 v -0.031006 z m 3.3708537,0 H 10.017476 V 10.017476 H 7.0037069 V 9.98647 Z m 3.5429361,0 h 2.923853 v 2.9827636 0.031006 h -2.923853 z m 3.105754,0 h 3.187402 v 2.9827636 0.031006 h -3.187402 v -0.031006 z m 3.369303,0 h 2.396236 0.382923 V 10.017476 H 17.0217 V 9.98647 Z m 3.308325,0 h 0.120923 2.41794 v 2.9827636 0.031006 h -2.538863 z m 2.720764,0 h 3.187403 v 2.9827636 0.031006 h -3.187403 v -0.031006 z m 3.369304,0 h 3.164148 V 10.017476 H 26.420093 V 9.98647 Z m 3.693314,0 h 2.921786 v 2.9827636 0.031006 h -2.921786 z m 3.105237,0 h 3.187403 v 2.9827636 0.031006 h -3.187403 v -0.031006 z m 3.369304,0 h 2.779158 V 10.017476 H 36.587948 V 9.98647 Z m 3.308325,0 h 0.119372 2.80293 v 2.9827636 0.031006 h -2.922302 z m 3.105753,0 h 3.187403 v 2.9827636 0.031006 h -3.187403 v -0.031006 z m 3.369304,0 h 2.779158 V 10.017476 H 46.37133 V 9.98647 Z m 3.308325,0 h 0.119373 3.03909 v 2.9827636 0.031006 h -3.158463 z m 3.339848,0 h 3.187402 v 2.9827636 0.031006 h -3.187402 v -0.031006 z m 3.37137,0 h 2.394169 0.148312 V 10.017476 H 56.390873 V 9.98647 Z m 3.072164,0 h 0.355534 2.41794 v 2.9827636 0.031006 h -2.773474 z m 2.954859,0 h 3.187402 v 2.9827636 0.031006 h -3.187402 v -0.031006 z m 3.37137,0 h 2.92747 v 3.0137691 h -2.92747 V 9.98647 Z m 3.456637,0 h 3.156396 v 2.9827636 0.031006 h -3.156396 z m 3.339847,0 h 3.187919 v 2.9827636 0.031006 H 72.58575 v -0.031006 z m 3.369304,0 h 2.545064 V 10.017476 H 75.955054 V 9.98647 Z m 3.074231,0 h 0.355534 2.566251 v 2.9827636 0.031006 h -2.921785 z m 3.103686,0 h 3.187403 v 2.9827636 0.031006 h -3.187403 v -0.031006 z m 3.370854,0 h 2.779158 V 10.017476 H 85.503825 V 9.98647 Z m 3.308842,0 h 0.118856 3.037024 v 2.9827636 0.031006 h -3.15588 z m 3.339848,0 h 3.187402 v 2.9827636 0.031006 h -3.187402 v -0.031006 z m 3.368786,0 h 2.394686 0.148312 V 10.017476 H 95.521301 V 9.98647 Z m 3.072681,0 h 0.355017 2.417941 v 2.9827636 0.031006 h -2.772958 z m 2.956928,0 h 3.1874 v 2.9827636 0.031006 h -3.1874 v -0.031006 z m 3.36878,0 h 2.92799 v 3.0137691 h -2.92799 V 9.98647 Z m 3.45716,0 h 3.15846 v 2.9827636 0.031006 h -3.15846 z m 3.33985,0 h 3.18946 v 2.9827636 0.031006 h -3.18946 v -0.031006 z m 3.37137,0 h 2.54299 v 3.0137691 h -2.54299 V 9.98647 Z m 3.07216,0 h 0.35553 2.56625 v 2.9827636 0.031006 h -2.92178 z m 3.10524,0 h 3.18792 v 2.9827636 0.031006 h -3.18792 v -0.031006 z m 3.3693,0 h 2.77916 v 3.0137691 h -2.77916 V 9.9864705 Z M 3.6328532,10.546643 h 3.1894694 v 2.89078 H 3.6328532 Z m 3.3708537,0 h 3.0137691 v 2.89078 H 7.0037069 Z m 3.5429361,0 h 2.923853 v 2.89078 h -2.923853 z m 3.105754,0 h 3.187402 v 2.89078 h -3.187402 z m 3.369303,0 h 2.779159 v 2.89078 H 19.417936 17.0217 Z m 3.308325,0 h 2.538863 v 2.89078 h -2.41794 -0.120923 z m 2.720764,0 h 3.187403 v 2.89078 h -3.187403 z m 3.369304,0 h 3.164148 v 2.89078 h -3.164148 z m 3.693314,0 h 2.921786 v 2.89078 h -2.921786 z m 3.105237,0 h 3.187403 v 2.89078 h -3.187403 z m 3.369304,0 h 2.779158 v 2.89078 h -2.779158 z m 3.308325,0 h 2.922302 v 2.89078 h -2.80293 -0.119372 z m 3.105753,0 h 3.187403 v 2.89078 h -3.187403 z m 3.369304,0 h 2.779158 v 2.89078 H 46.37133 Z m 3.308325,0 h 3.158463 v 2.89078 h -3.03909 -0.119373 z m 3.339848,0 h 3.187402 v 2.89078 h -3.187402 z m 3.37137,0 h 2.542481 v 2.89078 h -0.148312 -2.394169 z m 3.072164,0 h 2.773474 v 2.89078 h -2.41794 -0.355534 z m 2.954859,0 h 3.187402 v 2.89078 h -3.187402 z m 3.37137,0 h 2.92747 v 2.89078 h -2.92747 z m 3.456637,0 h 3.156396 v 2.89078 h -3.156396 z m 3.339847,0 h 3.187919 v 2.89078 H 72.58575 Z m 3.369304,0 h 2.545064 v 2.89078 h -2.545064 z m 3.074231,0 h 2.921785 v 2.89078 h -2.566251 -0.355534 z m 3.103686,0 h 3.187403 v 2.89078 h -3.187403 z m 3.370854,0 h 2.779158 v 2.89078 h -2.779158 z m 3.308842,0 h 3.15588 v 2.89078 h -3.037024 -0.118856 z m 3.339848,0 h 3.187402 v 2.89078 h -3.187402 z m 3.368786,0 h 2.542998 v 2.89078 h -0.148312 -2.394686 z m 3.072681,0 h 2.772958 v 2.89078 h -2.417941 -0.355017 z m 2.956928,0 h 3.1874 v 2.89078 h -3.1874 z m 3.36878,0 h 2.92799 v 2.89078 h -2.92799 z m 3.45716,0 h 3.15846 v 2.89078 h -3.15846 z m 3.33985,0 h 3.18946 v 2.89078 h -3.18946 z m 3.37137,0 h 2.54299 v 2.89078 h -2.54299 z m 3.07216,0 h 2.92178 v 2.89078 h -2.56625 -0.35553 z m 3.10524,0 h 3.18792 v 2.89078 h -3.18792 z m 3.3693,0 h 2.77916 v 2.89078 h -2.77916 z M 3.6328532,13.619324 h 3.1894694 v 3.189469 H 3.6328532 Z m 3.3708537,0 h 3.0137691 v 3.189469 H 7.0037069 Z m 3.5429361,0 h 2.923853 v 3.189469 h -2.923853 z m 3.105754,0 h 3.187402 v 3.189469 h -3.187402 z m 3.369303,0 h 2.396236 0.382923 v 3.189469 H 19.417936 17.0217 Z m 3.308325,0 h 0.120923 2.41794 v 3.189469 h -2.41794 -0.120923 z m 2.720764,0 h 3.187403 v 3.189469 h -3.187403 z m 3.369304,0 h 3.164148 v 3.189469 h -3.164148 z m 3.693314,0 h 2.921786 v 3.189469 h -2.921786 z m 3.105237,0 h 3.187403 v 3.189469 h -3.187403 z m 3.369304,0 h 2.779158 v 3.189469 h -2.779158 z m 3.308325,0 h 0.119372 2.80293 v 3.189469 h -2.80293 -0.119372 z m 3.105753,0 h 3.187403 v 3.189469 h -3.187403 z m 3.369304,0 h 2.779158 v 3.189469 H 46.37133 Z m 3.308325,0 h 0.119373 3.03909 v 3.189469 h -3.03909 -0.119373 z m 3.339848,0 h 3.187402 v 3.189469 h -3.187402 z m 3.37137,0 h 2.394169 0.148312 v 3.189469 h -0.148312 -2.394169 z m 3.072164,0 h 0.355534 2.41794 v 3.189469 h -2.41794 -0.355534 z m 2.954859,0 h 3.187402 v 3.189469 h -3.187402 z m 3.37137,0 h 2.92747 v 3.189469 h -2.92747 z m 3.456637,0 h 3.156396 v 3.189469 h -3.156396 z m 3.339847,0 h 3.187919 v 3.189469 H 72.58575 Z m 3.369304,0 h 2.545064 v 3.189469 h -2.545064 z m 3.074231,0 h 0.355534 2.566251 v 3.189469 h -2.566251 -0.355534 z m 3.103686,0 h 3.187403 v 3.189469 h -3.187403 z m 3.370854,0 h 2.779158 v 3.189469 h -2.779158 z m 3.308842,0 h 0.118856 3.037024 v 3.189469 h -3.037024 -0.118856 z m 3.339848,0 h 3.187402 v 3.189469 h -3.187402 z m 3.368786,0 h 2.394686 0.148312 v 3.189469 h -0.148312 -2.394686 z m 3.072681,0 h 0.355017 2.417941 v 3.189469 h -2.417941 -0.355017 z m 2.956928,0 h 3.1874 v 3.189469 h -3.1874 z m 3.36878,0 h 2.92799 v 3.189469 h -2.92799 z m 3.45716,0 h 3.15846 v 3.189469 h -3.15846 z m 3.33985,0 h 3.18946 v 3.189469 h -3.18946 z m 3.37137,0 h 2.54299 v 3.189469 h -2.54299 z m 3.07216,0 h 0.35553 2.56625 v 3.189469 h -2.56625 -0.35553 z m 3.10524,0 h 3.18792 v 3.189469 h -3.18792 z m 3.3693,0 h 2.77916 v 3.189469 h -2.77916 z M 3.6328532,16.990177 h 3.1894694 v 2.810682 H 3.6328532 Z m 3.3708537,0 h 3.0137691 v 2.810682 H 7.0037069 Z m 3.5429361,0 h 2.923853 v 2.810682 h -2.923853 z m 3.105754,0 h 3.187402 v 2.810682 h -3.187402 z m 3.369303,0 h 2.396236 0.382923 v 2.810682 H 17.0217 Z m 3.308325,0 h 0.120923 2.41794 v 2.810682 h -2.538863 z m 2.720764,0 h 3.187403 v 2.810682 h -3.187403 z m 3.369304,0 h 3.164148 v 2.810682 h -3.164148 z m 3.693314,0 h 2.921786 v 2.810682 h -2.921786 z m 3.105237,0 h 3.187403 v 2.810682 h -3.187403 z m 3.369304,0 h 2.779158 v 2.810682 h -2.779158 z m 3.308325,0 h 0.119372 2.80293 v 2.810682 h -2.922302 z m 3.105753,0 h 3.187403 v 2.810682 h -3.187403 z m 3.369304,0 h 2.779158 v 2.810682 H 46.37133 Z m 3.308325,0 h 0.119373 3.03909 v 2.810682 h -3.158463 z m 3.339848,0 h 3.187402 v 2.810682 h -3.187402 z m 3.37137,0 h 2.394169 0.148312 v 2.810682 h -2.542481 z m 3.072164,0 h 0.355534 2.41794 v 2.810682 h -2.773474 z m 2.954859,0 h 3.187402 v 2.810682 h -3.187402 z m 3.37137,0 h 2.92747 v 2.810682 h -2.92747 z m 3.456637,0 h 3.156396 v 2.810682 h -3.156396 z m 3.339847,0 h 3.187919 v 2.810682 H 72.58575 Z m 3.369304,0 h 2.545064 v 2.810682 h -2.545064 z m 3.074231,0 h 0.355534 2.566251 v 2.810682 h -2.921785 z m 3.103686,0 h 3.187403 v 2.810682 h -3.187403 z m 3.370854,0 h 2.779158 v 2.810682 h -2.779158 z m 3.308842,0 h 0.118856 3.037024 v 2.810682 h -3.15588 z m 3.339848,0 h 3.187402 v 2.810682 h -3.187402 z m 3.368786,0 h 2.394686 0.148312 v 2.810682 h -2.542998 z m 3.072681,0 h 0.355017 2.417941 v 2.810682 h -2.772958 z m 2.956928,0 h 3.1874 v 2.810682 h -3.1874 z m 3.36878,0 h 2.92799 v 2.810682 h -2.92799 z m 3.45716,0 h 3.15846 v 2.810682 h -3.15846 z m 3.33985,0 h 3.18946 v 2.810682 h -3.18946 z m 3.37137,0 h 2.54299 v 2.810682 h -2.54299 z m 3.07216,0 h 0.35553 2.56625 v 2.810682 h -2.92178 z m 3.10524,0 h 3.18792 v 2.810682 h -3.18792 z m 3.3693,0 h 2.77916 v 2.810682 h -2.77916 z M 3.6328532,20.330025 h 3.1894694 v 2.921786 H 3.6328532 Z m 3.3708537,0 h 3.0137691 v 2.921786 H 7.0037069 Z m 3.5429361,0 h 2.923853 v 2.921786 h -2.923853 z m 3.105754,0 h 3.187402 v 2.921786 h -3.187402 z m 3.369303,0 h 2.779159 v 2.921786 H 19.417936 17.0217 Z m 3.308325,0 h 2.538863 v 2.921786 h -2.41794 -0.120923 z m 2.720764,0 h 3.187403 v 2.921786 h -3.187403 z m 3.369304,0 h 3.164148 v 2.921786 h -3.164148 z m 3.693314,0 h 2.921786 v 2.921786 h -2.921786 z m 3.105237,0 h 3.187403 v 2.921786 h -3.187403 z m 3.369304,0 h 2.779158 v 2.921786 h -2.779158 z m 3.308325,0 h 2.922302 v 2.921786 h -2.80293 -0.119372 z m 3.105753,0 h 3.187403 v 2.921786 h -3.187403 z m 3.369304,0 h 2.779158 v 2.921786 H 46.37133 Z m 3.308325,0 h 3.158463 v 2.921786 h -3.03909 -0.119373 z m 3.339848,0 h 3.187402 v 2.921786 h -3.187402 z m 3.37137,0 h 2.542481 v 2.921786 h -0.148312 -2.394169 z m 3.072164,0 h 2.773474 v 2.921786 h -2.41794 -0.355534 z m 2.954859,0 h 3.187402 v 2.921786 h -3.187402 z m 3.37137,0 h 2.92747 v 2.921786 h -2.92747 z m 3.456637,0 h 3.156396 v 2.921786 h -3.156396 z m 3.339847,0 h 3.187919 v 2.921786 H 72.58575 Z m 3.369304,0 h 2.545064 v 2.921786 h -2.545064 z m 3.074231,0 h 2.921785 v 2.921786 h -2.566251 -0.355534 z m 3.103686,0 h 3.187403 v 2.921786 h -3.187403 z m 3.370854,0 h 2.779158 v 2.921786 h -2.779158 z m 3.308842,0 h 3.15588 v 2.921786 h -3.037024 -0.118856 z m 3.339848,0 h 3.187402 v 2.921786 h -3.187402 z m 3.368786,0 h 2.542998 v 2.921786 h -0.148312 -2.394686 z m 3.072681,0 h 2.772958 v 2.921786 h -2.417941 -0.355017 z m 2.956928,0 h 3.1874 v 2.921786 h -3.1874 z m 3.36878,0 h 2.92799 v 2.921786 h -2.92799 z m 3.45716,0 h 3.15846 v 2.921786 h -3.15846 z m 3.33985,0 h 3.18946 v 2.921786 h -3.18946 z m 3.37137,0 h 2.54299 v 2.921786 h -2.54299 z m 3.07216,0 h 2.92178 v 2.921786 h -2.56625 -0.35553 z m 3.10524,0 h 3.18792 v 2.921786 h -3.18792 z m 3.3693,0 h 2.77916 v 2.921786 h -2.77916 z M 3.6328532,23.433712 h 3.1894694 v 3.189469 H 3.6328532 Z m 3.3708537,0 h 3.0137691 v 3.189469 H 7.0037069 Z m 3.5429361,0 h 2.923853 v 3.189469 h -2.923853 z m 3.105754,0 h 3.187402 v 3.189469 h -3.187402 z m 3.369303,0 h 2.396236 0.382923 v 3.189469 H 19.417936 17.0217 Z m 3.308325,0 h 0.120923 2.41794 v 3.189469 h -2.41794 -0.120923 z m 2.720764,0 h 3.187403 v 3.189469 h -3.187403 z m 3.369304,0 h 3.164148 v 3.189469 h -3.164148 z m 3.693314,0 h 2.921786 v 3.189469 h -2.921786 z m 3.105237,0 h 3.187403 v 3.189469 h -3.187403 z m 3.369304,0 h 2.779158 v 3.189469 h -2.779158 z m 3.308325,0 h 0.119372 2.80293 v 3.189469 h -2.80293 -0.119372 z m 3.105753,0 h 3.187403 v 3.189469 h -3.187403 z m 3.369304,0 h 2.779158 v 3.189469 H 46.37133 Z m 3.308325,0 h 0.119373 3.03909 v 3.189469 h -3.03909 -0.119373 z m 3.339848,0 h 3.187402 v 3.189469 h -3.187402 z m 3.37137,0 h 2.394169 0.148312 v 3.189469 h -0.148312 -2.394169 z m 3.072164,0 h 0.355534 2.41794 v 3.189469 h -2.41794 -0.355534 z m 2.954859,0 h 3.187402 v 3.189469 h -3.187402 z m 3.37137,0 h 2.92747 v 3.189469 h -2.92747 z m 3.456637,0 h 3.156396 v 3.189469 h -3.156396 z m 3.339847,0 h 3.187919 v 3.189469 H 72.58575 Z m 3.369304,0 h 2.545064 v 3.189469 h -2.545064 z m 3.074231,0 h 0.355534 2.566251 v 3.189469 h -2.566251 -0.355534 z m 3.103686,0 h 3.187403 v 3.189469 h -3.187403 z m 3.370854,0 h 2.779158 v 3.189469 h -2.779158 z m 3.308842,0 h 0.118856 3.037024 v 3.189469 h -3.037024 -0.118856 z m 3.339848,0 h 3.187402 v 3.189469 h -3.187402 z m 3.368786,0 h 2.394686 0.148312 v 3.189469 h -0.148312 -2.394686 z m 3.072681,0 h 0.355017 2.417941 v 3.189469 h -2.417941 -0.355017 z m 2.956928,0 h 3.1874 v 3.189469 h -3.1874 z m 3.36878,0 h 2.92799 v 3.189469 h -2.92799 z m 3.45716,0 h 3.15846 v 3.189469 h -3.15846 z m 3.33985,0 h 3.18946 v 3.189469 h -3.18946 z m 3.37137,0 h 2.54299 v 3.189469 h -2.54299 z m 3.07216,0 h 0.35553 2.56625 v 3.189469 h -2.56625 -0.35553 z m 3.10524,0 h 3.18792 v 3.189469 h -3.18792 z m 3.3693,0 h 2.77916 v 3.189469 h -2.77916 z M 3.6328532,26.804565 h 3.1894694 v 2.779676 H 3.6328532 Z m 3.3708537,0 h 3.0137691 v 2.779676 H 7.0037069 Z m 3.5429361,0 h 2.923853 v 2.779676 h -2.923853 z m 3.105754,0 h 3.187402 v 2.779676 h -3.187402 z m 3.369303,0 h 2.396236 0.382923 v 2.779676 H 17.0217 Z m 3.308325,0 h 0.120923 2.41794 v 2.779676 h -2.538863 z m 2.720764,0 h 3.187403 v 2.779676 h -3.187403 z m 3.369304,0 h 3.164148 v 2.779676 h -3.164148 z m 3.693314,0 h 2.921786 v 2.779676 h -2.921786 z m 3.105237,0 h 3.187403 v 2.779676 h -3.187403 z m 3.369304,0 h 2.779158 v 2.779676 h -2.779158 z m 3.308325,0 h 0.119372 2.80293 v 2.779676 h -2.922302 z m 3.105753,0 h 3.187403 v 2.779676 h -3.187403 z m 3.369304,0 h 2.779158 v 2.779676 H 46.37133 Z m 3.308325,0 h 0.119373 3.03909 v 2.779676 h -3.158463 z m 3.339848,0 h 3.187402 v 2.779676 h -3.187402 z m 3.37137,0 h 2.394169 0.148312 v 2.779676 h -2.542481 z m 3.072164,0 h 0.355534 2.41794 v 2.779676 h -2.773474 z m 2.954859,0 h 3.187402 v 2.779676 h -3.187402 z m 3.37137,0 h 2.92747 v 2.779676 h -2.92747 z m 3.456637,0 h 3.156396 v 2.779676 h -3.156396 z m 3.339847,0 h 3.187919 v 2.779676 H 72.58575 Z m 3.369304,0 h 2.545064 v 2.779676 h -2.545064 z m 3.074231,0 h 0.355534 2.566251 v 2.779676 h -2.921785 z m 3.103686,0 h 3.187403 v 2.779676 h -3.187403 z m 3.370854,0 h 2.779158 v 2.779676 h -2.779158 z m 3.308842,0 h 0.118856 3.037024 v 2.779676 h -3.15588 z m 3.339848,0 h 3.187402 v 2.779676 h -3.187402 z m 3.368786,0 h 2.394686 0.148312 v 2.779676 h -2.542998 z m 3.072681,0 h 0.355017 2.417941 v 2.779676 h -2.772958 z m 2.956928,0 h 3.1874 v 2.779676 h -3.1874 z m 3.36878,0 h 2.92799 v 2.779676 h -2.92799 z m 3.45716,0 h 3.15846 v 2.779676 h -3.15846 z m 3.33985,0 h 3.18946 v 2.779676 h -3.18946 z m 3.37137,0 h 2.54299 v 2.779676 h -2.54299 z m 3.07216,0 h 0.35553 2.56625 v 2.779676 h -2.92178 z m 3.10524,0 h 3.18792 v 2.779676 h -3.18792 z m 3.3693,0 h 2.77916 v 2.779676 h -2.77916 z" />
    <path
       id="path1"
       style="fill:url(#linearGradient85);fill-opacity:1;stroke-width:0.172789"
       d="m 143.46566,3.0509766 -2.23655,5.7479695 h 0.48524 l 2.22984,-5.7479695 z m 11.92796,0 -2.23656,5.7479695 h 0.48524 l 2.22984,-5.7479695 z m 1.56889,0 -0.74724,0.031006 v 0.160197 c 0.105,0.018531 0.17688,0.037279 0.21601,0.055811 0.0411,0.018531 0.0729,0.043012 0.0956,0.073897 0.0247,0.030885 0.0435,0.074114 0.0558,0.1297079 0.0145,0.053535 0.0228,0.1196773 0.0248,0.1979207 0.004,0.078243 0.006,0.2162607 0.006,0.4139282 v 3.3574178 l 0.21342,0.049093 0.21601,-0.1881022 c 0.14825,0.070007 0.2894,0.1179267 0.42323,0.144694 0.1359,0.028827 0.28017,0.043408 0.43253,0.043408 0.2718,0 0.50669,-0.058851 0.70435,-0.1762166 0.19973,-0.1194241 0.34973,-0.2944205 0.45062,-0.5250326 0.10295,-0.2326711 0.15451,-0.5165214 0.15451,-0.8521443 0,-0.3253278 -0.0432,-0.600321 -0.12971,-0.8247559 -0.0844,-0.224435 -0.20578,-0.3921405 -0.36432,-0.5033284 -0.15649,-0.113247 -0.34502,-0.1700155 -0.56534,-0.1700155 -0.12148,0 -0.23398,0.018749 -0.33693,0.05581 -0.1009,0.035004 -0.19933,0.086564 -0.2961,0.1545126 -0.0947,0.067948 -0.21452,0.1768021 -0.35864,0.3271118 l -0.0124,-0.0031 5.2e-4,-1.9518188 z m 10.28155,0 -2.23604,5.7479695 h 0.48472 l 2.23036,-5.7479695 z m 15.40577,0 -0.74465,0.031006 v 0.160197 c 0.105,0.018531 0.17739,0.037279 0.21652,0.055811 0.0412,0.018531 0.0729,0.043012 0.0956,0.073897 0.0247,0.030885 0.0435,0.074114 0.0558,0.1297079 0.0145,0.053535 0.0228,0.1196773 0.0248,0.1979207 0.004,0.078243 0.006,0.2162607 0.006,0.4139282 v 2.5848552 c 0,0.1420733 -0.005,0.2462363 -0.0155,0.3121256 -0.0103,0.065889 -0.0264,0.116408 -0.0491,0.151412 -0.0206,0.035003 -0.0508,0.06365 -0.0899,0.0863 -0.0391,0.022649 -0.10371,0.046604 -0.19431,0.071314 v 0.1514119 h 1.22318 V 7.3194499 c -0.0885,-0.022649 -0.15466,-0.046605 -0.19792,-0.071314 -0.0412,-0.026767 -0.0719,-0.05958 -0.0925,-0.098702 -0.0205,-0.041181 -0.0351,-0.0917 -0.0434,-0.1514119 -0.006,-0.059712 -0.009,-0.1597089 -0.009,-0.2997233 V 5.5154256 c 0,-0.088539 0.0213,-0.1718705 0.0646,-0.2501139 0.0453,-0.078243 0.11144,-0.1542845 0.19792,-0.2284098 0.0865,-0.074125 0.16254,-0.1256859 0.22841,-0.1545126 0.0659,-0.028827 0.13985,-0.043408 0.22221,-0.043408 0.14619,0 0.25973,0.036454 0.34003,0.1085205 0.0824,0.072066 0.13708,0.1809202 0.16381,0.3271118 0.0288,0.1441326 0.0429,0.3529833 0.0429,0.6268352 v 0.8092529 c 0,0.1400145 -0.007,0.245219 -0.0217,0.3152262 -0.0123,0.067948 -0.0306,0.1184673 -0.0553,0.151412 -0.0227,0.032945 -0.0513,0.058466 -0.0863,0.076998 -0.035,0.018531 -0.0928,0.040404 -0.17312,0.065112 v 0.1514119 h 1.21698 V 7.3194499 c -0.12147,-0.032944 -0.20323,-0.067315 -0.24443,-0.1023194 -0.0391,-0.037063 -0.0667,-0.087065 -0.0832,-0.1508951 -0.0144,-0.065889 -0.0217,-0.1888001 -0.0217,-0.3679362 V 5.5340291 c 0,-0.168841 -0.01,-0.3078998 -0.0305,-0.4170288 -0.0205,-0.1111879 -0.0529,-0.205977 -0.0961,-0.2842204 -0.0412,-0.080302 -0.0953,-0.1469692 -0.1633,-0.2005045 -0.0659,-0.055594 -0.14349,-0.096739 -0.23203,-0.1235067 -0.0885,-0.026767 -0.18906,-0.040308 -0.3023,-0.040308 -0.10501,0 -0.20397,0.016665 -0.29663,0.049609 -0.0906,0.032944 -0.18329,0.082422 -0.27801,0.1483113 -0.0927,0.06383 -0.21922,0.1768503 -0.37983,0.3395142 l -0.0124,-0.0031 -5.2e-4,-1.9518188 z m -45.9698,0.2005045 -0.17932,1.2882935 h -0.69195 v 0.3550171 h 0.64234 l -0.13281,0.9172566 h -0.66404 v 0.3519165 h 0.61805 l -0.18242,1.306897 h 0.41703 l 0.17932,-1.306897 h 0.94826 l -0.18552,1.306897 h 0.41703 l 0.1788,-1.306897 h 0.69815 V 5.8120483 h -0.64544 l 0.12971,-0.9172566 h 0.66404 V 4.5397746 h -0.61753 l 0.185,-1.2882935 h -0.41393 l -0.1819,1.2882935 h -0.95136 l 0.18552,-1.2882935 z m 3.14399,0.0031 0.15142,2.9310872 h 0.29972 l 0.2005,-2.9310872 z m 20.31969,0.05271 v 0.5989298 h 0.56844 V 3.3072917 Z m 36.69079,0.5586222 c -0.46442,0 -0.93079,0.1236008 -1.34721,0.3715535 l -6.98303,4.1449667 c -0.83266,0.4940001 -1.34669,1.4078861 -1.34669,2.3977865 v 8.289416 c 0,0.989901 0.51229,1.904303 1.34669,2.398303 l 6.98148,4.14445 c 0.40728,0.242614 0.87263,0.370469 1.34669,0.370003 0.47412,-2.97e-4 0.93944,-0.128094 1.3472,-0.370003 l 6.98304,-4.14445 c 0.83266,-0.494173 1.34721,-1.410303 1.34721,-2.398303 V 10.77867 c 0,-0.9879988 -0.51281,-1.904303 -1.34721,-2.398303 L 198.18118,4.2359172 C 197.77357,3.9940984 197.30844,3.8663051 196.8345,3.8659133 Z m 0.002,0.4904093 c 0.3867,0 0.76793,0.1053302 1.10278,0.3033407 l 6.98355,4.1444499 c 0.57536,0.3422929 0.96378,0.9324339 1.0728,1.5968018 -0.23498,-0.4941729 -0.75674,-0.6270689 -1.36529,-0.271819 l -6.60579,4.079855 c -0.82333,0.481041 -1.43022,1.021164 -1.43196,2.014864 v 8.139555 c 0,0.59387 0.24053,0.979092 0.60875,1.091923 -0.12096,0.02172 -0.24351,0.03347 -0.36639,0.03514 -0.38685,0 -0.76791,-0.105661 -1.10277,-0.303858 l -6.98149,-4.14445 C 188.06801,20.636937 187.6443,19.88036 187.6443,19.068086 V 10.77867 c 0,-0.8120998 0.42371,-1.5691962 1.10639,-1.9745562 l 6.98356,-4.1444499 c 0.33371,-0.1978115 0.71432,-0.3025597 1.10225,-0.3033413 z m -47.70613,0.1090373 c -0.23267,0 -0.43579,0.032813 -0.60875,0.098702 -0.17296,0.065889 -0.30576,0.1617198 -0.39842,0.287321 -0.0906,0.1235422 -0.13591,0.2698919 -0.13591,0.4387329 0,0.1379554 0.0323,0.2572248 0.0961,0.3581176 0.0659,0.1008928 0.15547,0.1883911 0.26872,0.2625163 0.11324,0.074125 0.26323,0.1506832 0.45061,0.2289266 0.21825,0.092657 0.37086,0.1666147 0.45734,0.2222087 0.0865,0.053535 0.15,0.1134279 0.1912,0.1793172 0.0412,0.065889 0.062,0.1513042 0.062,0.2563151 0,0.092656 -0.0167,0.1697391 -0.0496,0.2315104 -0.0329,0.061771 -0.0772,0.1112487 -0.13281,0.1483114 -0.0556,0.035004 -0.11915,0.060526 -0.19121,0.076998 -0.07,0.014413 -0.14239,0.021704 -0.21652,0.021704 -0.19149,0 -0.34149,-0.042187 -0.45062,-0.1266073 -0.10912,-0.086479 -0.19141,-0.2244968 -0.24701,-0.4139282 h -0.30283 v 0.6454386 c 0.15442,0.041181 0.31277,0.073993 0.47543,0.098702 0.16267,0.026767 0.33037,0.040308 0.50333,0.040308 0.16472,0 0.31627,-0.015107 0.45423,-0.045992 0.14002,-0.030885 0.26033,-0.081405 0.36122,-0.1514119 0.10089,-0.070007 0.17953,-0.1606301 0.23513,-0.2718181 0.0556,-0.111188 0.0832,-0.2481637 0.0832,-0.4108276 0,-0.1400145 -0.0328,-0.2603255 -0.0987,-0.3612183 -0.0638,-0.1008927 -0.1534,-0.1894325 -0.26871,-0.2656168 -0.11325,-0.076184 -0.27522,-0.1600331 -0.48524,-0.2506307 -0.20797,-0.088539 -0.35276,-0.1593723 -0.43512,-0.2129069 -0.0823,-0.053535 -0.14329,-0.1113448 -0.18242,-0.1731161 -0.0391,-0.061771 -0.0584,-0.1398953 -0.0584,-0.234611 0,-0.1338374 0.0479,-0.2390419 0.14469,-0.3152262 0.0988,-0.078243 0.23061,-0.1173055 0.39533,-0.1173055 0.11325,0 0.20907,0.014581 0.28732,0.043408 0.0782,0.028826 0.14852,0.079346 0.21032,0.1514119 0.0618,0.070007 0.11544,0.1668794 0.16071,0.2904216 h 0.29611 V 4.5640625 c -0.19148,-0.039122 -0.35086,-0.064644 -0.47852,-0.076998 -0.1256,-0.014413 -0.25633,-0.021704 -0.39223,-0.021704 z m 3.406,0 c -0.14187,5.43e-5 -0.2693,0.021926 -0.38241,0.065112 -0.11119,0.04324 -0.21536,0.1046992 -0.31213,0.1850016 -0.0968,0.078243 -0.20146,0.1865726 -0.3147,0.324528 l -0.0434,-0.0093 0.0341,-0.5405355 h -0.1881 l -0.72295,0.031006 v 0.1607137 c 0.0927,0.016472 0.1635,0.036786 0.2129,0.061495 0.0514,0.02265 0.09,0.058587 0.11473,0.1080038 0.0248,0.047358 0.0389,0.1114171 0.0429,0.1917195 0.004,0.080302 0.006,0.1860318 0.006,0.3178101 v 1.3466878 c 0,0.1441326 -0.005,0.2503786 -0.0181,0.3183268 -0.0123,0.067948 -0.0311,0.1184673 -0.0558,0.151412 -0.0247,0.032945 -0.0544,0.058466 -0.0894,0.076998 -0.0329,0.018531 -0.0887,0.040404 -0.16691,0.065112 v 0.1514119 h 1.24489 V 7.3194499 c -0.10502,-0.018531 -0.18419,-0.04457 -0.23772,-0.077515 -0.0515,-0.032945 -0.0884,-0.084505 -0.1111,-0.1545125 -0.0227,-0.072066 -0.0341,-0.2017513 -0.0341,-0.3891235 V 5.617745 c 0,-0.098834 0.0125,-0.1847656 0.0372,-0.2568319 0.0268,-0.072066 0.0737,-0.149149 0.14159,-0.2315104 0.0679,-0.082361 0.13826,-0.1448622 0.21033,-0.1881022 0.0741,-0.04324 0.14807,-0.065112 0.2222,-0.065112 0.0968,0 0.17281,0.026039 0.22841,0.077515 0.0556,0.049417 0.10822,0.1296242 0.15762,0.2408122 h 0.34933 V 4.483964 C 152.76465,4.47163 152.65642,4.46538 152.53722,4.46536 Z m 17.0434,0 c -0.26561,0 -0.5005,0.064059 -0.70435,0.1917196 -0.20384,0.1276602 -0.36113,0.3089059 -0.47232,0.543636 -0.10913,0.2347302 -0.16382,0.5055571 -0.16382,0.8123536 0,0.4962277 0.10781,0.8717424 0.32401,1.1270629 0.2162,0.2532615 0.53651,0.3798218 0.96067,0.3798218 0.15855,0 0.30385,-0.021355 0.43563,-0.064595 0.13178,-0.045299 0.25209,-0.1072751 0.36122,-0.1855184 0.11119,-0.078243 0.23254,-0.1865725 0.36432,-0.324528 l -0.1881,-0.2005046 c -0.13383,0.1420737 -0.26873,0.2451951 -0.40463,0.3090251 -0.13383,0.061771 -0.2854,0.092501 -0.45424,0.092501 -0.19973,0 -0.36221,-0.046353 -0.48782,-0.1390096 -0.12353,-0.094716 -0.21312,-0.2244006 -0.26872,-0.3891235 -0.0535,-0.166782 -0.0801,-0.3714665 -0.0801,-0.6144328 v -0.05581 h 1.94562 c -0.006,-0.280029 -0.0338,-0.5065861 -0.0832,-0.6795451 -0.0474,-0.1750181 -0.11558,-0.3192847 -0.20412,-0.4325318 -0.0865,-0.1153058 -0.20263,-0.2059287 -0.34882,-0.271818 -0.14619,-0.065889 -0.32326,-0.098702 -0.53123,-0.098702 z m 10.90838,0 c -0.23267,0 -0.43527,0.032813 -0.60823,0.098702 -0.17296,0.065889 -0.30577,0.1617198 -0.39843,0.287321 -0.0906,0.1235422 -0.13591,0.2698919 -0.13591,0.4387329 0,0.1379554 0.0318,0.2572248 0.0956,0.3581176 0.0659,0.1008928 0.15548,0.1883911 0.26872,0.2625163 0.11325,0.074125 0.26377,0.1506832 0.45114,0.2289266 0.21826,0.092657 0.37034,0.1666147 0.45682,0.2222087 0.0865,0.053535 0.15052,0.1134279 0.19172,0.1793172 0.0412,0.065889 0.0615,0.1513042 0.0615,0.2563151 0,0.092656 -0.0162,0.1697391 -0.0491,0.2315104 -0.0329,0.061771 -0.0772,0.1112487 -0.13281,0.1483114 -0.0556,0.035004 -0.11965,0.060526 -0.19172,0.076998 -0.07,0.014413 -0.14189,0.021704 -0.21601,0.021704 -0.19149,0 -0.342,-0.042187 -0.45113,-0.1266073 -0.10913,-0.086479 -0.19142,-0.2244968 -0.24702,-0.4139282 h -0.3023 v 0.6454386 c 0.15443,0.041181 0.31276,0.073993 0.47542,0.098702 0.16267,0.026767 0.33038,0.040308 0.50333,0.040308 0.16473,0 0.31627,-0.015107 0.45423,-0.045992 0.14001,-0.030885 0.26032,-0.081405 0.36122,-0.1514119 0.10088,-0.070007 0.17901,-0.1606301 0.23461,-0.2718181 0.0556,-0.111188 0.0837,-0.2481637 0.0837,-0.4108276 0,-0.1400145 -0.0333,-0.2603255 -0.0992,-0.3612183 -0.0638,-0.1008927 -0.15342,-0.1894325 -0.26872,-0.2656168 -0.11325,-0.076184 -0.27469,-0.1600331 -0.48472,-0.2506307 -0.20796,-0.088539 -0.35327,-0.1593723 -0.43563,-0.2129069 -0.0823,-0.053535 -0.14278,-0.1113448 -0.18191,-0.1731161 -0.0391,-0.061771 -0.0589,-0.1398953 -0.0589,-0.234611 0,-0.1338374 0.0484,-0.2390419 0.14521,-0.3152262 0.0988,-0.078243 0.23061,-0.1173055 0.39533,-0.1173055 0.11325,0 0.20908,0.014581 0.28732,0.043408 0.0783,0.028826 0.14808,0.079346 0.20981,0.1514119 0.0618,0.070007 0.11545,0.1668794 0.16071,0.2904216 h 0.29662 V 4.5640625 c -0.1915,-0.039122 -0.35138,-0.064644 -0.47904,-0.076998 -0.1256,-0.014413 -0.25633,-0.021704 -0.39222,-0.021704 z m -17.06718,0.0031 c -0.10707,0 -0.20863,0.018749 -0.30541,0.05581 -0.0947,0.035004 -0.18951,0.085523 -0.28422,0.151412 -0.0927,0.065889 -0.21504,0.1757847 -0.36741,0.3302124 l -0.0434,-0.012402 0.0341,-0.5033285 h -0.18862 l -0.72243,0.027905 v 0.1638143 c 0.0927,0.016472 0.1635,0.036786 0.2129,0.061495 0.0514,0.02265 0.0895,0.058587 0.11421,0.1080038 0.0248,0.047358 0.0394,0.1114171 0.0434,0.1917195 0.004,0.080302 0.006,0.1860318 0.006,0.3178101 v 1.3466878 c 0,0.1441326 -0.007,0.2503786 -0.0212,0.3183268 -0.0123,0.067948 -0.0311,0.1184673 -0.0558,0.151412 -0.0227,0.032945 -0.0513,0.058466 -0.0863,0.076998 -0.0329,0.018531 -0.0897,0.040404 -0.17001,0.065112 V 7.47086 h 1.21078 V 7.3194499 c -0.10504,-0.026768 -0.18108,-0.058014 -0.22841,-0.093018 -0.0453,-0.037063 -0.0765,-0.089148 -0.093,-0.1570964 -0.0165,-0.070007 -0.0243,-0.1939596 -0.0243,-0.3710367 V 5.5464315 c 0,-0.098834 0.0193,-0.186332 0.0584,-0.2625163 0.0391,-0.076184 0.10214,-0.1532671 0.18862,-0.2315104 0.0865,-0.078244 0.16564,-0.132929 0.23771,-0.1638143 0.0721,-0.032945 0.14811,-0.049609 0.22841,-0.049609 0.0803,0 0.14542,0.00937 0.19482,0.027905 0.0494,0.016473 0.0926,0.040428 0.12971,0.071313 0.0391,0.028826 0.0719,0.064764 0.0987,0.1080037 0.0288,0.041181 0.0523,0.099515 0.0708,0.1756999 0.0206,0.074125 0.0352,0.1699558 0.0434,0.2873209 0.008,0.1173651 0.0124,0.2480916 0.0124,0.3922242 v 0.8092529 c 0,0.1400145 -0.007,0.245219 -0.0217,0.3152262 -0.0123,0.067948 -0.0306,0.1184673 -0.0553,0.151412 -0.0227,0.032945 -0.0518,0.058466 -0.0868,0.076998 -0.035,0.018531 -0.0928,0.040404 -0.17312,0.065112 v 0.1514119 h 1.21698 V 7.3194499 c -0.0968,-0.026767 -0.16446,-0.051765 -0.2036,-0.074414 -0.0391,-0.024709 -0.0688,-0.054397 -0.0894,-0.0894 -0.0205,-0.035004 -0.0346,-0.084481 -0.0429,-0.1483114 -0.008,-0.06383 -0.0124,-0.1669516 -0.0124,-0.309025 V 5.5340291 c 0,-0.1709 -0.0114,-0.3120419 -0.0341,-0.4232299 -0.0205,-0.111188 -0.0523,-0.205977 -0.0956,-0.2842204 -0.0432,-0.080302 -0.099,-0.1469692 -0.16692,-0.2005046 -0.0659,-0.053535 -0.14297,-0.092597 -0.23151,-0.1173055 -0.0865,-0.026767 -0.18543,-0.040308 -0.29662,-0.040308 z m 9.71672,0 c -0.10708,0 -0.20864,0.018749 -0.30541,0.05581 -0.0947,0.035004 -0.1895,0.085523 -0.28422,0.151412 -0.0927,0.065889 -0.21505,0.1757847 -0.36742,0.3302124 l -0.0434,-0.012402 0.0341,-0.5033285 h -0.18862 l -0.72243,0.027905 v 0.1638143 c 0.0927,0.016472 0.1635,0.036786 0.2129,0.061495 0.0514,0.02265 0.0895,0.058587 0.11421,0.1080038 0.0248,0.047358 0.0394,0.1114171 0.0434,0.1917195 0.004,0.080302 0.006,0.1860318 0.006,0.3178101 v 1.3466878 c 0,0.1441326 -0.007,0.2503786 -0.0212,0.3183268 -0.0123,0.067948 -0.0311,0.1184673 -0.0558,0.151412 -0.0227,0.032945 -0.0513,0.058466 -0.0863,0.076998 -0.0329,0.018531 -0.0897,0.040404 -0.17001,0.065112 V 7.47086 h 1.21078 V 7.3194499 c -0.10503,-0.026768 -0.18159,-0.058014 -0.22893,-0.093018 -0.0453,-0.037063 -0.076,-0.089148 -0.0925,-0.1570964 -0.0165,-0.070007 -0.0248,-0.1939596 -0.0248,-0.3710367 V 5.5464315 c 0,-0.098834 0.0198,-0.186332 0.0589,-0.2625163 0.0391,-0.076184 0.10163,-0.1532671 0.1881,-0.2315104 0.0865,-0.078244 0.16616,-0.132929 0.23823,-0.1638143 0.0721,-0.032945 0.1481,-0.049609 0.22841,-0.049609 0.0803,0 0.1449,0.00937 0.1943,0.027905 0.0494,0.016473 0.0926,0.040428 0.12971,0.071313 0.0391,0.028826 0.0724,0.064764 0.0992,0.1080037 0.0288,0.041181 0.0523,0.099515 0.0708,0.1756999 0.0206,0.074125 0.0352,0.1699558 0.0434,0.2873209 0.008,0.1173651 0.0124,0.2480916 0.0124,0.3922242 v 0.8092529 c 0,0.1400145 -0.007,0.245219 -0.0217,0.3152262 -0.0123,0.067948 -0.0311,0.1184673 -0.0558,0.151412 -0.0227,0.032945 -0.0513,0.058466 -0.0863,0.076998 -0.035,0.018531 -0.0928,0.040404 -0.17312,0.065112 v 0.1514119 h 1.21698 V 7.3194499 c -0.0968,-0.026767 -0.16446,-0.051765 -0.2036,-0.074414 -0.0391,-0.024709 -0.0688,-0.054397 -0.0894,-0.0894 -0.0205,-0.035004 -0.0351,-0.084481 -0.0434,-0.1483114 -0.008,-0.06383 -0.0124,-0.1669516 -0.0124,-0.309025 V 5.5340291 c 0,-0.1709 -0.0114,-0.3120419 -0.0341,-0.4232299 -0.0205,-0.111188 -0.0523,-0.205977 -0.0956,-0.2842204 -0.0432,-0.080302 -0.099,-0.1469692 -0.16691,-0.2005046 -0.0659,-0.053535 -0.14297,-0.092597 -0.23152,-0.1173055 -0.0865,-0.026767 -0.18544,-0.040308 -0.29662,-0.040308 z m -12.63178,0.021704 -0.71986,0.027905 v 0.1638143 c 0.0927,0.016472 0.16351,0.036786 0.21291,0.061495 0.0514,0.02265 0.0895,0.058587 0.1142,0.1080038 0.0248,0.047358 0.0394,0.1114171 0.0434,0.1917195 0.004,0.080302 0.006,0.1860318 0.006,0.3178101 v 1.3466878 c 0,0.1441326 -0.007,0.2503786 -0.0217,0.3183268 -0.0123,0.067948 -0.0311,0.1184673 -0.0558,0.151412 -0.0227,0.032945 -0.0513,0.058466 -0.0863,0.076998 -0.0329,0.018531 -0.0892,0.040404 -0.1695,0.065112 v 0.1514119 h 1.21078 V 7.3194499 c -0.10503,-0.026768 -0.18108,-0.058014 -0.22841,-0.093018 -0.0453,-0.037063 -0.076,-0.089148 -0.0925,-0.1570964 -0.0165,-0.070007 -0.0248,-0.1939596 -0.0248,-0.3710367 v -2.208134 z m -16.14114,0.027905 v 0.1514119 c 0.12766,0.032945 0.20994,0.068882 0.24701,0.1080038 0.0391,0.037062 0.0647,0.088623 0.077,0.1545125 0.0144,0.06383 0.0217,0.182058 0.0217,0.3550171 v 1.1673706 c 0,0.2676747 0.0302,0.4754839 0.0899,0.6237345 0.0597,0.1461916 0.14983,0.2566039 0.27131,0.3307292 0.12149,0.074125 0.27616,0.1111043 0.46353,0.1111043 0.15648,0 0.31168,-0.043228 0.46612,-0.1297078 0.15648,-0.08648 0.32055,-0.2224138 0.49145,-0.4077271 l 0.046,0.012402 -0.0181,0.506429 h 0.1881 l 0.70745,-0.030489 V 7.3101481 c -0.11116,-0.022649 -0.18875,-0.046604 -0.23202,-0.071314 -0.0432,-0.026768 -0.075,-0.060622 -0.0956,-0.1018025 -0.0207,-0.041181 -0.0338,-0.096908 -0.0398,-0.1669149 -0.006,-0.070007 -0.009,-0.184069 -0.009,-0.3426148 V 4.5180705 h -0.88005 v 0.1514119 c 0.0803,0.02059 0.1376,0.039863 0.1726,0.058394 0.0371,0.018531 0.0652,0.039362 0.0837,0.062012 0.0206,0.022649 0.0378,0.052338 0.0522,0.0894 0.0146,0.035004 0.025,0.082398 0.031,0.1421102 0.006,0.059712 0.009,0.1482518 0.009,0.2656169 v 1.1580688 c 0,0.1008928 -0.0198,0.1894326 -0.0589,0.2656169 -0.0371,0.076184 -0.10008,0.1537838 -0.18862,0.2320272 -0.0885,0.076185 -0.16874,0.1293116 -0.24081,0.1601969 -0.0721,0.030885 -0.14706,0.046509 -0.22531,0.046509 -0.11942,0 -0.21316,-0.021872 -0.28112,-0.065112 -0.0679,-0.04324 -0.12054,-0.096367 -0.15761,-0.1601969 -0.0371,-0.06383 -0.0647,-0.1586191 -0.0832,-0.2842204 -0.0185,-0.1256012 -0.0279,-0.30893 -0.0279,-0.5498373 v -1.571997 z m 30.10411,0 v 0.1514119 c 0.0762,0.016472 0.13347,0.03887 0.1726,0.067696 0.0412,0.028827 0.0787,0.073097 0.11162,0.1328085 0.035,0.057653 0.0813,0.1659822 0.13901,0.324528 l 0.83664,2.3068359 h 0.36432 l 1.04128,-2.2882324 c 0.0597,-0.1317783 0.11072,-0.2338582 0.15399,-0.3059245 0.0432,-0.074125 0.0864,-0.127769 0.12971,-0.1607137 0.0432,-0.035004 0.10522,-0.060526 0.18552,-0.076998 V 4.5180705 h -1.15497 v 0.1514119 c 0.12351,0.026768 0.20789,0.062705 0.25322,0.1080038 0.0473,0.045299 0.0708,0.1109244 0.0708,0.1974039 0,0.055594 -0.008,0.1154873 -0.0248,0.1793173 -0.0165,0.06383 -0.0451,0.145079 -0.0863,0.2439127 l -0.62994,1.4980998 -0.53743,-1.5626953 c -0.0288,-0.080302 -0.0507,-0.1506111 -0.0651,-0.2103231 -0.0123,-0.061771 -0.0181,-0.1201059 -0.0181,-0.1756999 0,-0.055594 0.009,-0.099864 0.0274,-0.1328084 0.0206,-0.032945 0.0508,-0.060025 0.0899,-0.080615 0.0391,-0.020591 0.1058,-0.041946 0.20051,-0.064596 V 4.5180705 Z m -59.12869,1.2335164 c -0.0523,-4.06e-4 -0.10423,0.027515 -0.14625,0.059428 l -0.41858,0.5441528 c -0.67064,0.831075 -1.46464,1.6071868 -2.3306,2.2019328 -0.0689,0.0532 -0.17049,0.1057176 -0.19224,0.1937866 -0.0231,0.07937 0.02,0.1445994 0.0682,0.1943034 0.71167,0.4879803 1.36531,1.0556181 1.9482,1.6918861 0.10481,0.110745 0.18914,0.21956 0.29198,0.322461 0.17271,0.231081 0.37474,0.462208 0.53433,0.709001 0.0498,0.05234 0.0579,0.137985 0.13643,0.163298 0.061,0.0211 0.13596,0.03487 0.1943,0 l 0.0579,-0.05839 c 0.73102,-1.027434 1.62469,-1.9287859 2.64583,-2.6685709 0.10218,-0.08982 0.29658,-0.1238224 0.29921,-0.2930054 -0.007,-0.080554 -0.0513,-0.1532387 -0.11938,-0.1968872 l -0.0165,-0.00258 c -0.52323,-0.355802 -1.01061,-0.7589885 -1.4702,-1.2159465 l -0.50746,-0.5312337 c -0.21554,-0.2256408 -0.4167,-0.4660986 -0.59686,-0.7208862 l -0.23203,-0.3281454 c -0.0264,-0.01747 -0.0633,-0.045043 -0.0941,-0.053743 -0.0172,-0.00742 -0.0348,-0.010717 -0.0522,-0.010852 z M 169.54876,4.709272 c 0.14001,0 0.25304,0.038021 0.33952,0.1142049 0.0864,0.074125 0.15155,0.1824545 0.19482,0.324528 0.0433,0.1400145 0.0709,0.3212601 0.0832,0.5436361 h -1.34979 c 0.0226,-0.3150326 0.0971,-0.5572129 0.22272,-0.7260539 0.12766,-0.1709 0.29745,-0.2563151 0.50953,-0.2563151 z M 157.9257,4.8389798 c 0.23473,0 0.40973,0.1031214 0.52503,0.3090251 0.11737,0.2038446 0.17622,0.5095675 0.17622,0.9172567 0,0.4035711 -0.0635,0.7061693 -0.1912,0.9079549 -0.12766,0.2017856 -0.31516,0.3028239 -0.56224,0.3028239 -0.0988,0 -0.18842,-0.00937 -0.26872,-0.027905 -0.0803,-0.02059 -0.15376,-0.056528 -0.21962,-0.1080038 -0.0638,-0.051476 -0.1128,-0.1082441 -0.1478,-0.1700154 -0.0329,-0.061771 -0.0569,-0.1388538 -0.0713,-0.2315104 -0.0144,-0.094716 -0.0217,-0.221276 -0.0217,-0.3798218 V 5.5402303 c 0,-0.094716 0.0188,-0.1790892 0.0558,-0.2532145 0.0391,-0.074125 0.099,-0.1491249 0.17932,-0.2253093 0.0824,-0.076185 0.16465,-0.1319115 0.24701,-0.1669148 0.0824,-0.037063 0.18184,-0.055811 0.29921,-0.055811 z m -21.06073,0.055811 h 0.94826 l -0.1297,0.9172566 h -0.94827 z M 115.3221,6.538618 c 0.15385,-0.00284 0.31236,0.090995 0.43046,0.1917196 0.17963,0.136915 0.36607,0.292937 0.53175,0.451652 l 0.03,0.01757 c 0.45651,0.4178878 0.86724,0.8831858 1.22525,1.388029 0.0567,0.08721 0.10619,0.1849675 0.0749,0.2992065 -0.11603,0.289519 -0.35128,0.5206992 -0.55708,0.7735962 -0.44476,0.4796337 -0.91574,0.9424757 -1.44073,1.3130987 -0.10645,0.07502 -0.2503,0.144898 -0.37776,0.08475 -0.38718,-0.202307 -0.71291,-0.534555 -1.05213,-0.837159 -0.39243,-0.3636487 -0.78696,-0.7880868 -1.08521,-1.2319658 -0.0427,-0.065244 -0.0624,-0.1429344 -0.0558,-0.2206584 0.0382,-0.153495 0.14418,-0.2793523 0.2434,-0.4092773 0.35144,-0.448239 0.78247,-0.8738735 1.21853,-1.2619385 0.01,-0.01055 0.0263,-0.031164 0.0434,-0.040824 0.18754,-0.162195 0.37313,-0.3050329 0.56844,-0.4454509 0.0638,-0.049594 0.13264,-0.071058 0.20257,-0.072347 z m 3.90415,0.019637 5.2e-4,4.622973 h 1.28054 V 6.558256 Z m 1.95337,0 -0.001,4.622973 h 3.52123 v -0.896584 h -2.2412 V 9.3053751 h 2.06292 V 8.408789 h -2.06292 V 7.4548421 h 2.2412 V 6.558256 Z m 4.23799,0 -5.2e-4,4.622973 h 3.5202 v -0.896584 h -2.24017 V 9.3053751 h 2.06085 V 8.408789 h -2.06085 V 7.4548421 h 2.2412 V 6.558256 Z m 4.23747,0 v 4.622973 h 3.52123 V 10.284644 H 130.9351 V 9.3053751 h 2.06241 V 8.408789 h -2.06138 V 7.4548421 h 2.24018 V 6.558256 Z m -14.30766,0.1276408 c -0.0493,-4.222e-4 -0.0998,0.01407 -0.15193,0.049609 l 10e-4,0.00103 c -0.64795,0.447367 -1.27175,1.0551534 -1.77406,1.6743164 -0.10223,0.149994 -0.28057,0.2929499 -0.19947,0.4935099 0.0573,0.147387 0.18812,0.2535121 0.27182,0.3834391 0.49413,0.5949777 1.0584,1.1280138 1.68052,1.5874998 0.26684,0.170923 0.45686,-0.1049 0.66352,-0.230477 0.42468,-0.335746 0.81704,-0.7419977 1.18856,-1.1379147 v -0.00982 c 0.14905,-0.180518 0.30605,-0.3574413 0.42272,-0.5519043 0.0491,-0.095056 0.0241,-0.2258218 -0.0326,-0.3095418 -0.44997,-0.650557 -1.03975,-1.226073 -1.66502,-1.730127 -0.12165,-0.085012 -0.25713,-0.2183584 -0.40514,-0.2196248 z m -0.0139,0.4578532 c 0.11612,0.3329582 0.23654,0.664404 0.36122,0.9942545 l -0.2496,0.00362 -0.006,0.030489 0.0367,0.8914184 v 0.014986 c -0.0923,0.01554 -0.20603,0.01015 -0.29663,0.00155 l -0.006,-0.00878 0.0419,-0.918807 v -0.00723 c -0.0699,-0.0069 -0.15795,1.821e-4 -0.22945,-0.00672 l 0.28422,-0.8128703 0.0558,-0.1813843 z m 24.49359,-0.3896403 v 0.7167521 h 0.61754 V 6.7541097 Z m -25.17417,1.5709635 c 0.0959,0.071491 0.19712,0.1280696 0.29662,0.1917196 -0.19271,0.05145 -0.42363,0.0954 -0.51263,0.3064412 0.0148,0.160454 0.19689,0.2108639 0.32246,0.2501139 0.4561,0.122113 0.94802,0.1056509 1.38493,-0.052193 0.0817,-0.048814 0.21371,-0.1073806 0.20051,-0.2268596 -0.0142,-0.127327 -0.15983,-0.1839922 -0.262,-0.2232422 -0.0622,0.00819 -0.12215,0.021704 -0.18035,0.040824 -0.0313,-0.088068 -0.0575,-0.1779463 -0.0951,-0.2625163 0.19272,0.05145 0.38676,0.1037664 0.5855,0.1395264 v 0.00362 c -0.0431,0.0061 -0.0853,0.017556 -0.12558,0.034107 v 0.00723 c 0.11338,0.056691 0.27085,0.1506133 0.27285,0.2997233 -0.027,0.179663 -0.2252,0.2626704 -0.37155,0.3193604 -0.5965,0.184871 -1.34572,0.1770589 -1.90996,-0.072347 -0.10184,-0.048814 -0.2301,-0.1258405 -0.2651,-0.2444295 -0.0253,-0.21803 0.20856,-0.3392091 0.36742,-0.4185791 0.0939,-0.041 0.18814,-0.086201 0.29197,-0.092501 z m 0.51366,1.0092407 h 0.002 c 0.11437,0.0112 0.21352,0.00688 0.31833,0.00258 l 0.006,0.043408 0.0408,0.9120891 c 0.006,0.139265 -0.28318,0.0086 -0.41238,-0.0026 0.0224,-0.3278951 0.37205,-0.9558892 0.0455,-0.9554974 z m 1.20458,1.8660361 c -0.12026,-0.0039 -0.21904,0.09417 -0.21601,0.214457 0,0.136025 0.10164,0.215491 0.21601,0.215491 0.11338,0 0.21549,-0.07858 0.21549,-0.215491 0.003,-0.120077 -0.0954,-0.21805 -0.21549,-0.214457 z m 0,0.05064 c 0.0827,0 0.154,0.06526 0.154,0.163814 0,0.09941 -0.0712,0.165881 -0.154,0.165881 -0.0854,0 -0.15399,-0.06647 -0.15399,-0.165881 0,-0.09855 0.0683,-0.163814 0.15399,-0.163814 z m -0.0847,0.04857 v 0.231511 h 0.0496 v -0.09715 h 0.0233 l 0.0527,0.09715 h 0.0594 l -0.0605,-0.101286 c 0.033,-0.0026 0.0558,-0.01741 0.0558,-0.06098 h 0.001 c 0,-0.05234 -0.0352,-0.06925 -0.0951,-0.06925 z m 0.0496,0.03927 h 0.0351 c 0.0197,0 0.0444,0.002 0.0444,0.02635 0,0.02439 -0.0133,0.02946 -0.0351,0.02946 h -0.001 -0.0434 z m 41.12049,0.387058 v 0.62115 h 1.2423 v -0.62115 z m 1.2423,0.62115 v 0.621668 h 0.62115 v -0.621668 z m 0.62115,0.621668 v 0.62115 h -1.2423 v 1.242302 h -1.2423 v 1.242301 h -0.62115 v 2.48512 h 0.62115 v -1.863969 h 1.2423 v 1.863969 h 0.62115 v -0.621667 h 4.96973 v 0.621667 h 0.62115 v -1.863969 h 1.2423 v 1.863969 h 0.62115 v -2.48512 h -0.62115 v -1.242301 h -1.2423 v -1.242302 h -1.2423 v -0.62115 h -0.62116 v 0.62115 h -2.48511 v -0.62115 z m 3.72743,0 h 0.62115 v -0.621668 h -0.62115 z m 0.62115,-0.621668 h 1.2423 v -0.62115 h -1.2423 z m 0,6.212541 h -1.86346 v 0.621151 h 1.86346 z m -4.96973,0 v 0.621151 h 1.86346 v -0.621151 z m 13.46068,-5.690609 c -1.12663,0 -2.04742,0.9208 -2.04742,2.04742 v 8.690943 c 0,1.126619 0.92079,2.04742 2.04742,2.04742 h 4.67155 c 0.19023,1.75e-4 0.34457,-0.153932 0.34468,-0.344165 -1.1e-4,-0.190233 -0.15445,-0.34434 -0.34468,-0.344165 h -4.67155 c -0.75186,0.003 -1.35909,-0.607227 -1.35909,-1.35909 V 15.92718 h 12.22767 v 7.277592 c 0,0.0083 -0.008,0.01389 -0.0139,0.01964 -0.0143,0.01419 -0.0335,0.02218 -0.0537,0.02222 h -0.42168 c -0.0201,0 -0.0394,-0.008 -0.0537,-0.02222 -0.0142,-0.01429 -0.0222,-0.0336 -0.0222,-0.05374 v -1.265556 -0.0036 -0.0041 c -3.5e-4,-0.18814 -0.15292,-0.34049 -0.34106,-0.340547 -0.0903,-5.2e-5 -0.17697,0.03583 -0.24081,0.09974 -0.0639,0.06384 -0.0998,0.150483 -0.0997,0.240812 v 0.0041 0.0036 3.414779 c 0,0.09045 0.0358,0.177452 0.0997,0.241328 0.1331,0.133236 0.34904,0.133236 0.48214,0 0.0639,-0.06384 0.0998,-0.150481 0.0997,-0.240812 v -1.353922 c 0,-0.0202 0.008,-0.03951 0.0222,-0.05374 0.0143,-0.01419 0.0336,-0.02217 0.0537,-0.02222 h 0.42168 c 0.0201,0 0.0394,0.008 0.0537,0.02222 0.006,0.0059 0.0101,0.01275 0.0134,0.02015 V 25.3106 l 0.004,0.01292 c 3.3e-4,0.02838 0.004,0.05671 0.0109,0.08423 0.0129,0.04804 0.0362,0.09267 0.0682,0.130742 0.032,0.03821 0.0721,0.06891 0.1173,0.08992 0.0452,0.02093 0.096,0.04395 0.14418,0.03152 l 0.002,-5.16e-4 5.2e-4,5.16e-4 c 0.13687,1.33e-4 0.26031,-0.0823 0.31264,-0.208772 3e-4,-0.0011 6.6e-4,-0.003 0.001,-0.0041 l 5.2e-4,-5.17e-4 5.2e-4,-5.17e-4 c 1.6e-4,-2.22e-4 8.3e-4,-0.0013 0.001,-0.0016 l 0.004,-0.0083 c 0.004,-0.011 0.008,-0.02221 0.0103,-0.03359 0.009,-0.02988 0.0134,-0.06083 0.0139,-0.09198 V 14.916402 c 0,-1.126619 -0.92029,-2.04742 -2.0469,-2.04742 z m 0,0.688847 h 9.50949 c 0.75145,-0.0027 1.36132,0.607122 1.35858,1.358573 v 0.322461 h -12.22716 v -0.322461 c -0.003,-0.75163 0.60746,-1.361543 1.35909,-1.358573 z m -13.46068,1.274341 h 1.24231 v 1.242301 h -1.24231 z m 3.72742,0 h 1.24231 v 1.242301 h -1.24231 z m -39.01157,-0.408244 v 10.352856 h 17.79219 V 21.35942 h 1.16841 v -4.284493 h 0.82424 v 5.17e-4 c 0.28036,0 0.50895,0.213267 0.53898,0.486275 v 3.797701 h 1.16841 v -4.284493 h 0.81804 v 5.17e-4 c 0.30046,0 0.54466,0.244801 0.54466,0.545186 v 3.73879 h 1.16841 v -3.894853 c 0,-0.859672 -0.69702,-1.558044 -1.55753,-1.558044 h -4.67362 v -1.482597 z m 4.26227,1.346171 c 0.27138,-0.0036 0.53714,0.04036 0.78342,0.137459 0.44234,0.140371 0.90291,0.355539 1.14308,0.719853 0.57931,0.455925 0.9524,1.162017 0.9524,1.95647 1.5e-4,0.399581 -0.0961,0.793299 -0.28061,1.147733 -0.0211,0.111934 -0.046,0.204373 -0.0718,0.244946 -0.29371,0.496495 -0.18003,0.514145 -0.74879,0.902271 -0.45752,0.340654 -1.45921,0.610616 -1.99006,0.501261 0.29516,-0.01919 0.87883,-0.179088 1.22008,-0.265617 -0.75661,0.01099 -0.90705,0.357335 -1.7508,0.04186 -0.0731,-0.03843 -0.16119,-0.0729 -0.26045,-0.10852 0.2317,0.140267 0.44224,0.259064 0.6873,0.359151 -0.53145,-0.04285 -1.07746,-0.401553 -1.47484,-0.798401 -0.0807,-0.08494 -0.21462,-0.161789 -0.29766,-0.218591 0.16244,0.216891 0.33622,0.428346 0.56017,0.589111 0.78877,0.664774 2.06849,0.52587 2.69338,0.447001 0.0179,-0.0097 0.0353,-0.01881 0.0703,-0.03876 l 0.0403,-5.17e-4 c 0.12133,-0.04262 0.27303,-0.07233 0.40824,-0.117305 -0.10434,0.06051 -0.21958,0.09397 -0.33538,0.125057 -0.84655,0.482315 -2.10085,0.259833 -2.92747,-0.395842 -0.21734,-0.116332 -0.3966,-0.478793 -0.55707,-0.643888 -0.24419,-0.294772 -0.40478,-0.66168 -0.48266,-1.04283 0.0214,0.199117 0.0633,0.395493 0.12506,0.58601 -0.16342,-0.37569 -0.25198,-0.779159 -0.2403,-1.170471 -0.004,-0.08431 -0.004,-0.167295 0.0145,-0.250631 8e-5,0.07186 0.0197,0.128979 0.0522,0.152446 0.005,-0.08069 0.0149,-0.161065 0.0284,-0.240812 0.16851,-1.223304 1.14506,-2.204172 2.22208,-2.372982 0.54723,-0.117393 1.09736,-0.02866 1.56011,0.194303 0.12948,0.04139 0.25531,0.09341 0.37621,0.155546 -0.0334,-0.02934 -0.0686,-0.05913 -0.10387,-0.08682 -0.68411,-0.481025 -1.68217,-0.552494 -2.5275,-0.146244 -0.85744,0.388951 -1.48861,1.302364 -1.60765,2.343526 -0.007,-0.135755 0.022,-0.316636 0.0398,-0.395842 0.22552,-1.383412 1.50393,-2.294608 2.67994,-2.309936 z m 20.53983,0.136426 v 1.168404 h 2.18127 v 5.17e-4 c 0.36628,0 0.54518,0.244801 0.54518,0.545186 0,0 -1.6e-4,0.08219 -0.17208,0.217558 -0.22304,0.174724 -1.14728,0.427117 -1.65106,0.628385 v -0.0026 c -0.78588,0.262998 -1.1467,0.753566 -1.1467,1.522388 0,0.999286 0.44001,1.385445 1.30483,1.385445 h 2.83342 c -0.025,-0.586589 0,-3.907255 0,-3.907255 0,-0.859749 -0.69754,-1.558044 -1.55805,-1.558044 z m -14.50144,0.07906 c 1.6451,0 2.04484,0.672219 2.04484,2.128035 v 1.126546 l -3.02411,-0.01085 c 0,0.809773 0.51931,1.00304 1.32499,1.00304 h 1.34824 v 1.205611 h -1.5596 c -1.59368,0 -2.50579,-0.558852 -2.50579,-2.667537 0,-1.825363 0.29808,-2.784843 2.37143,-2.784843 z m 4.31964,0 h 2.38435 v 1.168404 h -2.18127 v 5.16e-4 c -0.30084,0 -0.54518,0.244285 -0.54518,0.54467 v 2.024683 c 3e-4,0.301016 0.24417,0.5449 0.54518,0.545186 h 2.18127 v 1.168921 h -2.38435 l -0.001,-0.0026 c -0.83807,-0.02563 -1.50998,-0.71188 -1.50998,-1.554944 l 0.016,-0.0124 h -0.016 V 17.33641 h 0.016 c 0.0997,-0.746375 0.72582,-1.324439 1.49396,-1.347722 z m 61.63448,0.04547 c 0.0378,6.25e-4 0.0656,0.03457 0.0656,0.0894 l 0.006,0.600997 c 0.25158,-0.09987 0.46984,-0.127452 0.66766,-0.08113 0.0426,0.01094 0.0629,0.07009 0.0444,0.138493 l -0.13281,0.533301 c -0.0109,0.04037 -0.0321,0.07723 -0.0615,0.10697 -0.0102,0.0106 -0.0221,0.01949 -0.0351,0.02636 -0.0186,0.0091 -0.0352,0.0106 -0.0517,0.0088 -0.0907,-0.02039 -0.30523,-0.06634 -0.64389,0.103869 -0.35527,0.179354 -0.47923,0.488326 -0.47749,0.717786 0.004,0.273869 0.14268,0.357233 0.62735,0.364836 0.64588,0.01094 0.92326,0.292036 0.93069,0.941544 0.0104,0.636549 -0.33134,1.322834 -0.85317,1.740979 l 5.1e-4,5.17e-4 0.0114,0.595313 c 0,0.07223 -0.0463,0.153906 -0.1018,0.183451 l -0.35347,0.203605 c -0.0554,0.02764 -0.10387,-0.0059 -0.10387,-0.07803 l -0.006,-0.586528 c -0.30155,0.125789 -0.60831,0.1558 -0.80253,0.07803 -0.0369,-0.01486 -0.0537,-0.06888 -0.0393,-0.131774 l 0.12764,-0.537952 c 0.0112,-0.04249 0.0336,-0.08519 0.0631,-0.111104 0.01,-0.01 0.0211,-0.01818 0.0336,-0.02429 0.0204,-0.01094 0.0406,-0.01308 0.0574,-0.0057 0.21082,0.07033 0.47893,0.03692 0.73794,-0.0925 0.3295,-0.166567 0.54968,-0.503162 0.54622,-0.836124 -0.004,-0.303587 -0.16638,-0.427697 -0.56431,-0.431498 -0.50694,0.0017 -0.98059,-0.09777 -0.98805,-0.845427 -0.005,-0.614259 0.31263,-1.254321 0.81959,-1.65778 l -0.006,-0.601513 c 0,-0.07395 0.0445,-0.155629 0.1018,-0.185002 l 0.3421,-0.218075 c 0.0102,-0.0051 0.0205,-0.0083 0.03,-0.0093 h 5.2e-4 c 0.002,-2.21e-4 0.005,-5.56e-4 0.007,-5.17e-4 z m -72.10878,0.112138 c -0.49202,0.02715 -0.99333,0.193225 -1.42575,0.534334 -1.03894,0.769124 -1.38489,2.506608 -0.50695,3.722253 -0.48557,-0.817128 -0.52844,-1.789369 -0.17467,-2.569869 0.0815,-0.150307 0.1568,-0.291931 0.28216,-0.41031 l 0.0941,-0.142627 c 0.0447,-0.05415 0.0664,-0.128895 0.1142,-0.19017 0.17715,-0.188224 0.37518,-0.338559 0.58601,-0.463537 0.0234,-0.01835 0.0474,-0.03591 0.0718,-0.05374 -0.27021,0.09495 -0.54723,0.253088 -0.77928,0.547254 0.34634,-0.472001 0.81795,-0.738668 1.30018,-0.839226 0.14166,-0.0581 0.28834,-0.103071 0.43822,-0.134358 z m 46.16307,0.446484 v 5.17e-4 h 5.2e-4 v 5.17e-4 5.16e-4 h -5.2e-4 v 5.17e-4 l -5.1e-4,5.17e-4 c -0.009,0.0066 -0.0718,0.019 -0.0884,0.03876 l -2.24689,2.675806 c -0.043,0.05119 -0.0362,0.127548 0.015,0.170532 0.0513,0.04289 0.12756,0.03618 0.17054,-0.01499 l 2.24689,-2.675806 c 0.043,-0.05119 0.0362,-0.127546 -0.015,-0.170532 -0.0157,-0.01316 -0.0599,-0.02234 -0.0816,-0.02636 z m -1.67276,0.06615 c -0.35818,0 -0.65268,0.294903 -0.65268,0.65319 0,0.358286 0.29451,0.652673 0.65268,0.652673 0.35818,0 0.65215,-0.294494 0.65215,-0.652673 0,-0.358287 -0.29397,-0.65319 -0.65215,-0.65319 z m 0,0.378271 c 0.15412,0 0.2744,0.120911 0.2744,0.274919 0,0.154007 -0.12039,0.274919 -0.2744,0.274919 -0.15249,0.0016 -0.27651,-0.12243 -0.27492,-0.274919 -0.002,-0.152489 0.12243,-0.276514 0.27492,-0.274919 z m -38.41265,0.02946 c -0.80863,0 -0.91157,0.500328 -0.91157,1.055749 h 1.72806 c 0,-0.533732 0.003,-1.055749 -0.81649,-1.055749 z m 39.5118,1.070219 c -0.35819,0 -0.65267,0.293976 -0.65267,0.652156 0,0.35818 0.29437,0.652674 0.65267,0.652674 0.35828,0 0.65268,-0.294494 0.65268,-0.652674 0,-0.35818 -0.29451,-0.652156 -0.65268,-0.652156 z m -47.70458,0.0052 c -5e-5,4.7e-4 1e-4,0.001 0,0.0016 l 5.2e-4,-5.17e-4 c 9e-5,-2.62e-4 -5e-5,-7.84e-4 0,-0.001 z m -5.1e-4,0.0041 c -0.0686,0.325646 -0.0538,0.653382 -0.004,0.9741 v 5.17e-4 c 0.0106,0.0291 0.0208,0.05844 0.0305,0.08785 -0.0362,-0.209306 -0.0659,-0.53118 -0.0346,-0.925525 -0.003,-0.02422 0.001,-0.07429 0.008,-0.136942 z m -0.004,0.974617 c 0.13613,0.889173 0.89986,1.675531 1.4764,1.74718 -0.59016,-0.241005 -1.12238,-0.751334 -1.3746,-1.412317 0.002,0.0085 0.002,0.01539 0.002,0.0186 l -5.1e-4,5.17e-4 -5.2e-4,5.16e-4 v 5.17e-4 h -5.2e-4 -5.1e-4 l -5.2e-4,-5.17e-4 h -5.2e-4 c -0.008,-0.0074 -0.0284,-0.06759 -0.0506,-0.171565 -0.0189,-0.05963 -0.0357,-0.121113 -0.0496,-0.182935 z m 47.70923,-0.606681 c 0.15249,-0.0016 0.27651,0.122429 0.27492,0.274918 0.002,0.152489 -0.12243,0.276514 -0.27492,0.274919 -0.15249,0.0016 -0.2765,-0.12243 -0.27491,-0.274919 -0.002,-0.152489 0.12242,-0.276513 0.27491,-0.274918 z m -22.20743,0.435115 v 1.273308 h -1.66501 c -0.10481,0 -0.16602,2.02e-4 -0.17415,-0.07441 -0.0793,-0.714144 0.3543,-0.687307 1.83916,-1.198894 z m 23.71484,0.250631 c -0.0669,-1.52e-4 -0.12131,0.05399 -0.12144,0.120923 1.3e-4,0.06693 0.0545,0.120923 0.12144,0.120923 h 1.60403 c 0.0667,-1.35e-4 0.1208,-0.05419 0.12093,-0.120923 -1.3e-4,-0.06673 -0.0542,-0.120788 -0.12093,-0.120923 z m -49.3665,0.01189 c 8.9e-4,0.04543 -0.0244,0.08831 -0.015,0.140043 0.0763,0.65211 0.50064,1.08614 0.99736,1.509985 0.087,0.101644 0.2794,0.133828 0.39946,0.189136 -0.0777,-0.06207 -0.16475,-0.09974 -0.24185,-0.190169 -0.55969,-0.419443 -1.00689,-0.943562 -1.13998,-1.648995 z m 78.0743,0.649056 c 0.0299,-0.0023 0.0506,0.0214 0.0506,0.06304 v 0.401526 c 0,0.05564 -0.006,0.107408 -0.0538,0.133325 l -1.76475,1.073319 c -0.0461,0.02781 -0.0837,0.0033 -0.0837,-0.05219 v -0.454752 c 0,-0.05545 0.0336,-0.08536 0.0796,-0.113172 l 1.73943,-1.03973 c 0.0116,-0.0069 0.0225,-0.01059 0.0326,-0.01137 z M 125.18271,19.898 c 0.17608,0.374869 0.42459,0.711195 0.73122,0.989604 0.21343,0.206828 0.50133,0.424898 0.73071,0.584977 -0.27293,-0.132616 -0.53831,-0.296836 -0.78652,-0.499711 -0.32147,-0.306529 -0.53951,-0.684317 -0.67541,-1.07487 z m 4.45296,0.619084 c -0.1254,0.102231 -0.26064,0.19194 -0.40359,0.267684 -0.0335,0.0225 -0.0676,0.04404 -0.10232,0.0646 -0.2901,0.171319 -0.43022,0.22949 -0.43615,0.239262 v 5.17e-4 5.17e-4 h 5.1e-4 v 5.17e-4 h 5.2e-4 5.2e-4 c 0.003,2.55e-4 0.0109,-0.001 0.0222,-0.0031 0.1124,0.0018 0.55644,-0.219983 0.91829,-0.569991 z m 48.29162,1.037663 c -0.0452,2.09e-4 -0.09,0.0092 -0.13177,0.02636 -0.0421,0.01743 -0.0803,0.04288 -0.11266,0.07493 -0.0318,0.03223 -0.0571,0.07031 -0.0744,0.112138 -0.0173,0.04198 -0.0262,0.0869 -0.0264,0.132292 v 5.17e-4 c -1.3e-4,0.09146 0.0361,0.179217 0.10076,0.243913 0.0323,0.03205 0.0706,0.0575 0.11266,0.07493 0.0417,0.01746 0.0865,0.02642 0.13177,0.02635 0.006,0 0.0107,-8.35e-4 0.016,-10e-4 h 0.63666 c 0.0144,-5.4e-5 0.0277,0.0071 0.0357,0.01912 0.004,0.0057 0.006,0.01225 0.007,0.01912 3.8e-4,0.0071 -0.001,0.01424 -0.004,0.02067 l -1.01079,2.524394 c -0.018,0.04487 -0.0272,0.09274 -0.0274,0.141076 v 0.309542 c 0,0.100758 0.0399,0.197507 0.1111,0.268718 0.0714,0.07147 0.16823,0.111621 0.26923,0.111621 h 1.18443 c 0.0465,-6.5e-5 0.0925,-0.0094 0.13539,-0.02739 0.0431,-0.01759 0.0823,-0.04359 0.11524,-0.07648 0.0331,-0.03291 0.0592,-0.07209 0.077,-0.115238 0.0178,-0.04291 0.027,-0.08893 0.0269,-0.135393 v -5.16e-4 c -7e-5,-0.094 -0.0374,-0.184135 -0.10387,-0.250631 -0.0665,-0.06644 -0.15663,-0.103795 -0.25063,-0.10387 l -0.008,5.17e-4 h -0.79685 c -0.007,0 -0.0132,-0.0016 -0.0191,-0.0047 -0.006,-0.0033 -0.0108,-0.0079 -0.0145,-0.01344 -0.004,-0.0055 -0.006,-0.01192 -0.007,-0.0186 -2.1e-4,-0.0068 0.001,-0.01351 0.004,-0.01964 l 1.16582,-2.906283 c 0.0191,-0.04769 0.0262,-0.09932 0.0207,-0.150378 -0.005,-0.05127 -0.0233,-0.100426 -0.0522,-0.143144 -0.029,-0.04257 -0.0678,-0.0775 -0.11317,-0.101803 -0.0455,-0.02415 -0.0963,-0.03675 -0.14779,-0.03669 h -1.22835 c -0.007,-5.62e-4 -0.0141,-4.12e-4 -0.0212,-5.17e-4 z m 2.78381,0.01964 c -0.16186,0 -0.34688,0.01526 -0.45837,0.04651 -0.10081,0.02387 -0.19253,0.07647 -0.26406,0.151411 -0.0647,0.07298 -0.11177,0.171937 -0.14056,0.29714 -0.0288,0.121732 -0.043,0.276731 -0.0429,0.464571 -6e-5,0.180826 0.002,0.3269 0.006,0.438216 0.005,0.09105 0.0153,0.181694 0.032,0.271301 0.0137,0.05925 0.0375,0.115708 0.0703,0.166915 0.031,0.04417 0.0673,0.08443 0.108,0.11989 0.0563,0.04974 0.11762,0.09356 0.18293,0.130741 0.072,0.04167 0.14617,0.0817 0.2217,0.119889 0.0734,0.03707 0.14529,0.07707 0.21549,0.11989 0.0644,0.03613 0.12427,0.07985 0.17828,0.130224 0.0213,0.0231 0.0408,0.0478 0.0589,0.07338 0.0131,0.01552 0.0233,0.03317 0.03,0.05219 0.007,0.01708 0.0121,0.03404 0.016,0.05168 0.005,0.02763 0.008,0.05566 0.008,0.08372 0.004,0.0418 0.006,0.0991 0.005,0.172083 0.002,0.09947 -0.004,0.198934 -0.016,0.297656 -0.003,0.05623 -0.018,0.111205 -0.0429,0.161747 -0.0192,0.03284 -0.0503,0.05706 -0.0868,0.0677 -0.036,0.01041 -0.16007,0.0155 -0.21395,0.0155 -0.0437,9.26e-4 -0.0874,-0.0043 -0.1297,-0.0155 -0.0338,-0.01558 -0.0619,-0.04121 -0.0806,-0.07338 -0.0214,-0.04984 -0.036,-0.102333 -0.0434,-0.156063 -0.008,-0.08657 -0.0117,-0.173504 -0.0109,-0.260449 0,-0.0096 -4.9e-4,-0.01923 -0.001,-0.02894 h -0.002 c -0.01,-0.06919 -0.0445,-0.132495 -0.0971,-0.178284 -0.0533,-0.046 -0.12133,-0.07131 -0.19172,-0.07131 -0.0701,1.53e-4 -0.13773,0.02546 -0.19069,0.07131 -0.053,0.04571 -0.0877,0.109023 -0.0977,0.178284 h -0.002 c -0.001,0.01064 -0.002,0.02133 -0.002,0.03204 v 0.01292 c 6.1e-4,0.06855 0.002,0.129784 0.002,0.160713 0,0.20513 0.0146,0.372444 0.0434,0.501262 0.0325,0.125133 0.0826,0.224158 0.15089,0.297139 0.0709,0.07098 0.16081,0.119972 0.2589,0.141077 0.12535,0.03008 0.25403,0.04397 0.38292,0.04134 0.17271,0 0.39596,-0.01579 0.51108,-0.04703 0.10867,-0.02716 0.20533,-0.08948 0.27492,-0.17725 0.0718,-0.08701 0.12249,-0.207063 0.15141,-0.360185 0.0323,-0.15645 0.0481,-0.355983 0.0481,-0.599446 0,-0.177425 -0.005,-0.320038 -0.016,-0.427881 -0.003,-0.0906 -0.0196,-0.180246 -0.0486,-0.266134 -0.021,-0.06268 -0.056,-0.119757 -0.10232,-0.166915 -0.0471,-0.04789 -0.0996,-0.09004 -0.15658,-0.125573 -0.052,-0.03277 -0.10606,-0.06228 -0.16175,-0.08837 -0.0633,-0.03595 -0.12809,-0.06905 -0.1943,-0.09922 -0.0656,-0.0333 -0.13035,-0.0681 -0.19431,-0.104386 -0.0542,-0.03337 -0.10627,-0.06996 -0.15606,-0.109554 -0.0233,-0.01898 -0.0449,-0.0399 -0.0646,-0.06253 -0.0158,-0.02385 -0.0268,-0.05052 -0.0326,-0.07855 -0.008,-0.03953 -0.016,-0.07952 -0.016,-0.119889 v -0.197921 c 0,-0.07508 0.002,-0.150149 0.0103,-0.224792 0.004,-0.04543 0.0174,-0.08962 0.0382,-0.130225 0.0182,-0.02902 0.0472,-0.04965 0.0806,-0.05736 0.0323,-0.01041 0.12274,-0.0155 0.17312,-0.0155 0.115,0 0.18672,0.03304 0.21549,0.09922 0.0228,0.04177 0.0356,0.08788 0.0377,0.135392 8.4e-4,0.03805 0.002,0.08736 0.002,0.13901 h 0.002 v 0.0026 c 0,0.07717 0.031,0.150632 0.0858,0.205155 0.0549,0.05469 0.12922,0.08536 0.2067,0.08527 0.0774,0 0.15145,-0.03075 0.20619,-0.08527 0.0547,-0.05428 0.0856,-0.128092 0.0858,-0.205155 l -5.2e-4,-0.0026 h 5.2e-4 v -0.13901 c 0.002,-0.13483 -0.0102,-0.269511 -0.0377,-0.401526 -0.0216,-0.111244 -0.0649,-0.200095 -0.12971,-0.266133 -0.0611,-0.06958 -0.14749,-0.118398 -0.25889,-0.146244 -0.10784,-0.03125 -0.24604,-0.04651 -0.41497,-0.04651 h -5.1e-4 z m -24.51685,1.423685 c -0.55596,0 -0.85679,0.363392 -0.85679,0.89917 0,0.536006 0.29567,0.908989 0.85679,0.908989 0.55344,0 0.85628,-0.380415 0.85628,-0.908989 0,-0.528271 -0.30784,-0.89917 -0.85628,-0.89917 z m 5.0183,0.02997 5.2e-4,1.748213 h 1.02888 V 24.50083 h -0.67852 v -1.472778 z m -18.82055,5.17e-4 v 1.748213 h 0.35088 v -1.748213 z m 0.78393,0 v 1.747696 h 0.33538 v -1.306897 h 0.006 l 0.66869,1.306897 h 0.4284 v -1.747696 h -0.33641 v 1.306896 h -0.005 l -0.66611,-1.306896 z m 1.71824,0 v 0.274918 h 0.50074 v 1.472778 h 0.35089 v -1.472778 h 0.50074 v -0.274918 z m 1.65003,0 v 1.747696 h 1.03714 V 24.50083 h -0.68626 v -0.490926 h 0.62373 v -0.275435 h -0.62373 v -0.430982 h 0.6811 v -0.274918 z m 1.43764,0 v 1.747696 h 0.35036 v -0.726053 h 0.11317 c 0.1478,0 0.19283,0.04986 0.24288,0.179834 l 0.21032,0.546219 h 0.39068 l -0.2806,-0.683679 c -0.035,-0.07766 -0.0898,-0.172918 -0.18501,-0.18035 v -0.0047 c 0.22282,-0.03003 0.36019,-0.200221 0.36019,-0.40566 0,-0.485803 -0.44795,-0.473356 -0.82372,-0.473356 z m 1.61798,0 v 1.748213 h 0.3359 v -1.307414 h 0.005 l 0.66869,1.307414 h 0.4284 v -1.748213 h -0.33538 v 1.306896 h -0.005 l -0.66611,-1.306896 z m 2.40141,0 -0.6811,1.747696 h 0.36329 l 0.15296,-0.400492 h 0.70848 l 0.15038,0.400492 h 0.38809 l -0.68626,-1.747696 z m 0.99994,0 v 0.274918 h 0.50074 v 1.472778 h 0.35088 v -1.472778 h 0.50075 v -0.274918 z m 1.62005,0 v 1.747696 h 0.35089 v -1.747696 z m 2.80758,0 v 1.747696 h 0.3359 v -1.306897 h 0.005 l 0.66869,1.306897 h 0.4284 v -1.747696 h -0.3359 v 1.306896 h -0.006 l -0.66611,-1.306896 z m 2.40141,0 -0.6811,1.747696 h 0.36329 l 0.15296,-0.400492 h 0.70848 l 0.15038,0.400492 h 0.38809 l -0.68626,-1.747696 z m -3.63596,0.244946 c 0.34809,0 0.49041,0.315841 0.49041,0.623734 0,0.315552 -0.1324,0.633553 -0.49041,0.633553 -0.35811,0 -0.49092,-0.318001 -0.49092,-0.633553 0,-0.307893 0.14276,-0.623734 0.49092,-0.623734 z m -7.86205,0.03049 h 0.11576 c 0.17525,0 0.37052,0.01701 0.37052,0.227376 0,0.217875 -0.19777,0.243396 -0.37052,0.243396 h -0.11576 z m 3.85713,0.07493 h 0.005 l 0.2527,0.721403 h -0.51108 z m 7.82898,0 h 0.005 l 0.2527,0.721403 h -0.51108 z" />
    <path
       style="font-size:14.5814px;font-family:Cambria;-inkscape-font-specification:'Cambria, Normal';font-variant-ligatures:discretionary-ligatures;fill:#f2ede6;stroke-width:0.740307"
       d="m 14.817105,11.651751 h -0.683503 q -0.156636,-0.42719 -0.370231,-0.669264 -0.213594,-0.249194 -0.484148,-0.348871 -0.270553,-0.09968 -0.662143,-0.09968 -0.569586,0 -0.911338,0.270554 -0.334632,0.263433 -0.334632,0.726222 0,0.327512 0.135277,0.541106 0.135277,0.213595 0.42007,0.398711 0.284793,0.185115 1.003895,0.491267 0.726222,0.313273 1.117812,0.576706 0.398711,0.263434 0.619425,0.612305 0.227834,0.348871 0.227834,0.833019 0,0.562467 -0.192235,0.946937 -0.192235,0.384471 -0.541106,0.626545 -0.348872,0.242074 -0.83302,0.348871 -0.477028,0.106797 -1.046614,0.106797 -0.598065,0 -1.160531,-0.09256 -0.562466,-0.08544 -1.096453,-0.227835 v -1.488043 h 0.697742 q 0.192236,0.655024 0.569586,0.954056 0.377351,0.291913 1.039495,0.291913 0.256313,0 0.498387,-0.04984 0.249194,-0.05696 0.44143,-0.177996 0.192235,-0.128157 0.306152,-0.341752 0.113917,-0.213594 0.113917,-0.533986 0,-0.363112 -0.142396,-0.590946 -0.142397,-0.227834 -0.441429,-0.41295 -0.299033,-0.192235 -1.053734,-0.512627 -0.647904,-0.270553 -1.039495,-0.526867 -0.39159,-0.256314 -0.619424,-0.605185 -0.220715,-0.348871 -0.220715,-0.8259 0,-0.583825 0.313272,-1.011015 0.320392,-0.434309 0.918458,-0.662143 0.598065,-0.2278347 1.402605,-0.2278347 0.469908,0 0.904218,0.049839 0.441429,0.04272 1.103572,0.177996 z m 3.403276,-0.441429 0.02848,0.0071 q 0.555346,-0.562467 0.875738,-0.783181 0.327512,-0.227835 0.640784,-0.341752 0.320392,-0.1139169 0.683503,-0.1139169 0.391591,0 0.697743,0.092558 0.306152,0.09256 0.533987,0.284793 0.234954,0.185115 0.377351,0.462788 0.149516,0.270554 0.220714,0.655024 0.0712,0.377351 0.0712,0.961176 v 2.684174 q 0,0.619425 0.04984,0.847259 0.05696,0.220715 0.192235,0.348872 0.142397,0.121037 0.562466,0.234954 v 0.348871 h -2.80521 V 16.55019 q 0.277673,-0.08544 0.39871,-0.149516 0.121037,-0.06408 0.199355,-0.177996 0.08544,-0.113917 0.128157,-0.348871 0.04984,-0.242075 0.04984,-0.726223 v -1.865393 q 0,-0.946937 -0.09968,-1.445325 -0.09256,-0.505507 -0.377351,-0.754701 -0.277673,-0.249194 -0.78318,-0.249194 -0.284793,0 -0.512628,0.09968 -0.227834,0.09968 -0.526867,0.355991 -0.299032,0.256313 -0.455668,0.526867 -0.149517,0.270553 -0.149517,0.576705 v 2.726893 q 0,0.484148 0.02136,0.690623 0.02848,0.206475 0.09968,0.348871 0.0712,0.135277 0.213595,0.227835 0.149516,0.08544 0.455669,0.163756 v 0.348871 H 16.191231 V 16.55019 q 0.313273,-0.08544 0.448549,-0.163756 0.135277,-0.07832 0.206475,-0.199355 0.07832,-0.121037 0.113917,-0.348872 0.0356,-0.227834 0.0356,-0.719102 V 9.1598123 q 0,-0.6835031 -0.01424,-0.9540564 -0.0071,-0.2705533 -0.05696,-0.4556688 Q 16.881854,7.5578519 16.796416,7.4510545 16.718098,7.3442572 16.575702,7.2801787 16.440425,7.2161003 16.077314,7.1520219 V 6.781791 l 1.715878,-0.071198 h 0.427189 z m 5.966413,-1.117813 h 2.02915 V 13.7165 q 0,0.833019 0.06408,1.267328 0.06408,0.43431 0.192235,0.655024 0.128157,0.220715 0.363111,0.370231 0.234955,0.149516 0.647904,0.149516 0.270554,0 0.519747,-0.106797 0.249194,-0.106797 0.555347,-0.370231 0.306152,-0.270553 0.434309,-0.533987 0.135277,-0.263433 0.135277,-0.612304 v -2.669934 q 0,-0.40583 -0.02136,-0.612305 -0.02136,-0.206475 -0.0712,-0.327512 -0.04984,-0.128157 -0.121037,-0.206475 -0.06408,-0.07832 -0.192235,-0.142397 -0.121037,-0.06408 -0.39871,-0.135276 v -0.348872 h 2.029149 v 4.86284 q 0,0.548227 0.02136,0.790301 0.02136,0.242074 0.09256,0.38447 0.0712,0.142397 0.220714,0.234954 0.149516,0.08544 0.533987,0.163756 v 0.370231 l -1.63044,0.0712 h -0.434309 l 0.04272,-1.167651 -0.106797,-0.02848 q -0.590946,0.640784 -1.132052,0.939817 -0.533987,0.299032 -1.075094,0.299032 -0.647904,0 -1.067974,-0.256313 -0.420069,-0.256314 -0.626544,-0.761821 -0.206475,-0.512628 -0.206475,-1.438205 v -2.691293 q 0,-0.598066 -0.04984,-0.81878 -0.04272,-0.227835 -0.177995,-0.355991 -0.128157,-0.135277 -0.569586,-0.249194 z m 7.796207,0.355991 q 0.355991,-0.05696 0.576706,-0.199355 0.220714,-0.142396 0.341751,-0.3631106 0.128157,-0.2278344 0.199355,-0.5624661 0.0712,-0.3417516 0.149516,-0.9896556 h 1.011016 v 1.7585963 h 2.299703 v 0.719103 h -2.299703 v 3.168321 q 0,0.690623 0.05696,1.103573 0.05696,0.40583 0.213595,0.640784 0.156636,0.227835 0.355991,0.327512 0.199355,0.09968 0.512627,0.09968 0.284793,0 0.533987,-0.113918 0.249194,-0.121037 0.491268,-0.341751 l 0.320392,0.38447 q -0.505507,0.491268 -0.961176,0.711983 -0.448549,0.220714 -0.932697,0.220714 -0.918457,0 -1.367006,-0.541106 -0.448549,-0.548227 -0.448549,-1.708758 v -3.951502 h -1.053734 z m 4.934038,0 q 0.355991,-0.05696 0.576706,-0.199355 0.220714,-0.142396 0.341751,-0.3631106 0.128157,-0.2278344 0.199355,-0.5624661 0.0712,-0.3417516 0.149517,-0.9896556 h 1.011015 v 1.7585963 h 2.299703 v 0.719103 h -2.299703 v 3.168321 q 0,0.690623 0.05696,1.103573 0.05696,0.40583 0.213595,0.640784 0.156636,0.227835 0.355991,0.327512 0.199355,0.09968 0.512628,0.09968 0.284793,0 0.533986,-0.113918 0.249194,-0.121037 0.491268,-0.341751 l 0.320392,0.38447 q -0.505507,0.491268 -0.961176,0.711983 -0.448549,0.220714 -0.932697,0.220714 -0.918457,0 -1.367006,-0.541106 -0.448549,-0.548227 -0.448549,-1.708758 v -3.951502 h -1.053734 z m 7.262223,4.670605 q 0,0.612305 0.05696,0.854379 0.05696,0.234954 0.213595,0.363111 0.163756,0.121037 0.526867,0.213595 v 0.348871 h -2.82657 V 16.55019 q 0.355991,-0.09256 0.491268,-0.192235 0.142396,-0.09968 0.199355,-0.234955 0.06408,-0.142396 0.08544,-0.37735 0.02848,-0.242074 0.02848,-0.626545 V 9.1598123 q 0,-0.6835031 -0.01424,-0.9540564 -0.0071,-0.2705533 -0.05696,-0.4556688 Q 42.840735,7.5578519 42.755297,7.4510545 42.676979,7.3442572 42.534582,7.2801787 42.399305,7.2161003 42.036194,7.1520219 V 6.781791 l 1.715878,-0.071198 h 0.42719 z m 7.746368,0.569586 q -0.455669,0.477028 -0.840139,0.747582 -0.377351,0.270553 -0.83302,0.427189 -0.455668,0.149516 -1.003895,0.149516 -1.466684,0 -2.214265,-0.875738 -0.747582,-0.882858 -0.747582,-2.598736 0,-1.060854 0.377351,-1.872514 0.38447,-0.81166 1.089333,-1.253089 0.704863,-0.4414287 1.62332,-0.4414287 0.719102,0 1.22461,0.2278347 0.505507,0.227834 0.80454,0.626544 0.306152,0.391591 0.469908,0.996776 0.170876,0.598065 0.192235,1.566361 h -4.485489 v 0.128157 q 0,0.840139 0.185116,1.416845 0.192235,0.569586 0.619424,0.897098 0.43431,0.320392 1.124933,0.320392 0.583825,0 1.046614,-0.213595 0.469908,-0.220715 0.932697,-0.711982 z M 50.7295,12.798042 q -0.04272,-0.768941 -0.192236,-1.253089 -0.149516,-0.491267 -0.448549,-0.747581 -0.299032,-0.263434 -0.78318,-0.263434 -0.733342,0 -1.174771,0.590946 -0.43431,0.583825 -0.512628,1.673158 z m 4.143734,2.44922 v 1.651799 H 53.43503 v -1.651799 z m 6.23697,-3.595511 h -0.683503 q -0.156636,-0.42719 -0.370231,-0.669264 -0.213595,-0.249194 -0.484148,-0.348871 -0.270554,-0.09968 -0.662144,-0.09968 -0.569586,0 -0.911337,0.270554 -0.334632,0.263433 -0.334632,0.726222 0,0.327512 0.135277,0.541106 0.135276,0.213595 0.420069,0.398711 0.284793,0.185115 1.003895,0.491267 0.726222,0.313273 1.117813,0.576706 0.39871,0.263434 0.619425,0.612305 0.227834,0.348871 0.227834,0.833019 0,0.562467 -0.192235,0.946937 -0.192236,0.384471 -0.541107,0.626545 -0.348871,0.242074 -0.833019,0.348871 -0.477029,0.106797 -1.046615,0.106797 -0.598065,0 -1.160531,-0.09256 -0.562466,-0.08544 -1.096453,-0.227835 v -1.488043 h 0.697743 q 0.192235,0.655024 0.569586,0.954056 0.377351,0.291913 1.039494,0.291913 0.256314,0 0.498388,-0.04984 0.249194,-0.05696 0.441429,-0.177996 0.192235,-0.128157 0.306152,-0.341752 0.113918,-0.213594 0.113918,-0.533986 0,-0.363112 -0.142397,-0.590946 -0.142396,-0.227834 -0.441429,-0.41295 -0.299033,-0.192235 -1.053734,-0.512627 -0.647904,-0.270553 -1.039494,-0.526867 -0.391591,-0.256314 -0.619425,-0.605185 -0.220715,-0.348871 -0.220715,-0.8259 0,-0.583825 0.313273,-1.011015 0.320392,-0.434309 0.918457,-0.662143 0.598065,-0.2278347 1.402605,-0.2278347 0.469909,0 0.904218,0.049839 0.441429,0.04272 1.103573,0.177996 z m 3.403272,-0.441429 0.02848,0.0071 q 0.555346,-0.562467 0.875738,-0.783181 0.327512,-0.227835 0.640784,-0.341752 0.320392,-0.1139169 0.683503,-0.1139169 0.391591,0 0.697743,0.092558 0.306153,0.09256 0.533987,0.284793 0.234954,0.185115 0.377351,0.462788 0.149516,0.270554 0.220714,0.655024 0.0712,0.377351 0.0712,0.961176 v 2.684174 q 0,0.619425 0.04984,0.847259 0.05696,0.220715 0.192235,0.348872 0.142397,0.121037 0.562467,0.234954 v 0.348871 H 66.642304 V 16.55019 q 0.277673,-0.08544 0.39871,-0.149516 0.121037,-0.06408 0.199355,-0.177996 0.08544,-0.113917 0.128157,-0.348871 0.04984,-0.242075 0.04984,-0.726223 v -1.865393 q 0,-0.946937 -0.09968,-1.445325 -0.09256,-0.505507 -0.377351,-0.754701 -0.277673,-0.249194 -0.78318,-0.249194 -0.284793,0 -0.512628,0.09968 -0.227834,0.09968 -0.526867,0.355991 -0.299032,0.256313 -0.455668,0.526867 -0.149517,0.270553 -0.149517,0.576705 v 2.726893 q 0,0.484148 0.02136,0.690623 0.02848,0.206475 0.09968,0.348871 0.0712,0.135277 0.213595,0.227835 0.149516,0.08544 0.455669,0.163756 v 0.348871 H 62.484326 V 16.55019 q 0.313273,-0.08544 0.448549,-0.163756 0.135277,-0.07832 0.206475,-0.199355 0.07832,-0.121037 0.113918,-0.348872 0.0356,-0.227834 0.0356,-0.719102 V 9.1598123 q 0,-0.6835031 -0.01424,-0.9540564 -0.0071,-0.2705533 -0.05696,-0.4556688 Q 63.174949,7.5578519 63.089512,7.4510545 63.011193,7.3442572 62.868797,7.2801787 62.73352,7.2161003 62.370409,7.1520219 V 6.781791 l 1.715878,-0.071198 h 0.427189 z"
       id="text30"
       aria-label="shuttle.sh" />
    <path
       d="m 9.9405455,20.220495 q 0.1183885,-0.01894 0.1917905,-0.0663 0.0734,-0.04736 0.113653,-0.120757 0.04262,-0.07577 0.0663,-0.187054 0.02368,-0.113654 0.04972,-0.329122 h 0.336225 v 0.584842 h 0.764792 v 0.239145 h -0.764792 v 1.053662 q 0,0.229674 0.01894,0.367005 0.01894,0.134964 0.07103,0.2131 0.05209,0.07577 0.118389,0.108918 0.0663,0.03315 0.17048,0.03315 0.09471,0 0.177583,-0.03788 0.08287,-0.04025 0.163377,-0.113654 l 0.10655,0.12786 q -0.168112,0.163377 -0.31965,0.236778 -0.14917,0.0734 -0.310179,0.0734 -0.305443,0 -0.454613,-0.179951 -0.14917,-0.182319 -0.14917,-0.568267 V 20.341251 H 9.9405455 Z m 2.4601215,-1.046558 v 0.459349 h -0.435671 v -0.459349 z m -0.677184,3.075744 q 0.09234,-0.02841 0.130227,-0.04972 0.04025,-0.02131 0.0663,-0.05919 0.02841,-0.03788 0.04262,-0.116021 0.01657,-0.07814 0.01657,-0.243882 v -1.032351 q 0,-0.151538 -0.0047,-0.243881 -0.0047,-0.09234 -0.03315,-0.146802 -0.02841,-0.05683 -0.08761,-0.08287 -0.05683,-0.02841 -0.163376,-0.04736 v -0.125492 l 0.551692,-0.02131 h 0.144434 v 1.692961 q 0,0.203629 0.01894,0.284134 0.01894,0.07814 0.07103,0.120756 0.05446,0.04025 0.175216,0.07103 v 0.116021 h -0.928169 z m 3.653481,0.116021 H 14.44406 v -0.116021 q 0.09234,-0.02841 0.132595,-0.04972 0.04025,-0.02131 0.0663,-0.05919 0.02841,-0.03788 0.04262,-0.116021 0.01657,-0.0805 0.01657,-0.241514 V 21.16287 q 0,-0.165744 -0.0095,-0.300707 -0.0095,-0.134964 -0.03315,-0.220204 -0.02131,-0.08761 -0.05446,-0.134963 -0.03078,-0.04972 -0.07577,-0.08287 -0.04262,-0.03552 -0.09945,-0.05446 -0.05683,-0.02131 -0.14917,-0.02131 -0.09234,0 -0.175215,0.03788 -0.08287,0.03552 -0.182319,0.125492 -0.09945,0.08998 -0.144435,0.177584 -0.04499,0.08761 -0.04499,0.201261 v 0.883181 q 0,0.203629 0.01894,0.284134 0.01894,0.07814 0.07103,0.120756 0.05446,0.04025 0.175216,0.07103 v 0.116021 h -0.92817 v -0.116021 q 0.09234,-0.02841 0.130228,-0.04972 0.04025,-0.02131 0.0663,-0.05919 0.02841,-0.03788 0.04262,-0.116021 0.01657,-0.07814 0.01657,-0.243882 V 20.74851 q 0,-0.151538 -0.0047,-0.243881 -0.0047,-0.09234 -0.03315,-0.146802 -0.02841,-0.05683 -0.08761,-0.08287 -0.05683,-0.02841 -0.163376,-0.04736 v -0.125492 l 0.55406,-0.02131 h 0.144434 l -0.02604,0.385948 0.03315,0.0095 q 0.175216,-0.177584 0.281766,-0.253353 0.108918,-0.07577 0.217836,-0.116021 0.111285,-0.04262 0.23441,-0.04262 0.12786,0 0.227306,0.03078 0.101815,0.02841 0.177584,0.08998 0.07814,0.06156 0.12786,0.153906 0.04972,0.08997 0.0734,0.217835 0.02605,0.12786 0.02605,0.324386 v 0.892652 q 0,0.163377 0.0095,0.236778 0.0095,0.0734 0.03315,0.113653 0.02368,0.04025 0.06867,0.06867 0.04499,0.02604 0.156273,0.05683 z m 1.307014,0.194157 q -0.130228,0.293605 -0.253353,0.475924 -0.123124,0.182319 -0.272294,0.274662 -0.146802,0.09234 -0.350431,0.09234 -0.130228,0 -0.293605,-0.03078 v -0.46882 h 0.210733 q 0.02841,0.09708 0.07103,0.134964 0.04262,0.03788 0.123124,0.03788 0.07103,0 0.125493,-0.02841 0.05683,-0.02605 0.116021,-0.09234 0.06156,-0.0663 0.142066,-0.203628 0.08287,-0.137332 0.184687,-0.348064 L 15.824471,20.62065 q -0.06393,-0.172848 -0.104182,-0.241513 -0.03788,-0.06867 -0.08287,-0.104182 -0.04499,-0.03552 -0.137331,-0.05683 v -0.116021 h 0.963685 v 0.116021 q -0.111285,0.02604 -0.156273,0.05209 -0.04499,0.02368 -0.0663,0.06393 -0.02131,0.03788 -0.02131,0.09945 0,0.06393 0.01421,0.132595 0.01657,0.06867 0.04972,0.161009 l 0.421465,1.186257 0.473555,-1.136534 q 0.04025,-0.09471 0.06156,-0.172847 0.02368,-0.08051 0.02368,-0.14917 0,-0.101815 -0.05683,-0.153906 -0.05446,-0.05209 -0.19179,-0.08287 v -0.116021 h 0.885549 v 0.116021 q -0.09234,0.01894 -0.142067,0.05919 -0.04972,0.03788 -0.09945,0.123125 -0.04972,0.08287 -0.118389,0.23441 z m 3.151513,-0.265191 v 0.499602 q 0,0.153905 0.0095,0.229674 0.01184,0.07577 0.03788,0.118389 0.02841,0.04499 0.07814,0.0734 0.05209,0.02841 0.165745,0.05209 v 0.116021 h -0.966054 v -0.116021 q 0.08524,-0.02368 0.137331,-0.04972 0.05446,-0.02368 0.08287,-0.0734 0.02841,-0.04736 0.03788,-0.130228 0.0095,-0.08287 0.0095,-0.220203 v -2.031554 q 0,-0.17048 -0.0047,-0.241514 -0.0047,-0.0734 -0.01894,-0.120756 -0.01421,-0.04736 -0.04262,-0.07814 -0.02604,-0.03078 -0.0734,-0.05209 -0.04499,-0.02131 -0.151538,-0.04262 v -0.125492 l 0.556428,-0.02131 h 0.144435 l -0.03078,0.385948 0.03552,0.0095 q 0.146802,-0.14917 0.232043,-0.215468 0.08524,-0.06867 0.175215,-0.113654 0.09234,-0.04499 0.175216,-0.06393 0.08524,-0.01894 0.179951,-0.01894 0.390683,0 0.599048,0.293605 0.210732,0.291236 0.210732,0.854768 0,0.390683 -0.118389,0.658242 -0.118389,0.265191 -0.345696,0.400155 -0.224938,0.132595 -0.537485,0.132595 -0.175216,0 -0.317282,-0.03078 -0.142067,-0.02841 -0.260456,-0.07814 z m 0,-0.781366 q 0,0.227306 0.02841,0.350431 0.02841,0.123124 0.09945,0.201261 0.0734,0.07577 0.17048,0.113653 0.09945,0.03788 0.260456,0.03788 0.286501,0 0.430935,-0.236778 0.144435,-0.239146 0.144435,-0.70323 0,-0.928169 -0.542222,-0.928169 -0.132595,0 -0.229674,0.04262 -0.09471,0.04025 -0.189422,0.132595 -0.09471,0.09234 -0.134964,0.179951 -0.03788,0.08524 -0.03788,0.184687 z m 3.085215,0.890284 q -0.492498,0 -0.752954,-0.288869 -0.258087,-0.291237 -0.258087,-0.859503 0,-0.390684 0.134963,-0.66061 0.137331,-0.269927 0.374109,-0.400155 0.236778,-0.132596 0.539853,-0.132596 0.506705,0 0.767161,0.295973 0.260455,0.293604 0.260455,0.845297 0,0.393051 -0.130228,0.662977 -0.130227,0.269927 -0.369373,0.404891 -0.239146,0.132595 -0.565899,0.132595 z M 22.357175,21.20549 q 0,0.487763 0.153905,0.750586 0.156274,0.260456 0.445143,0.260456 0.158641,0 0.269926,-0.07577 0.111286,-0.07814 0.179951,-0.208365 0.07103,-0.130228 0.101815,-0.300708 0.03078,-0.172847 0.03078,-0.359902 0,-0.348063 -0.07814,-0.577738 -0.07577,-0.229674 -0.208364,-0.336224 -0.132596,-0.108918 -0.303076,-0.108918 -0.286501,0 -0.440406,0.248617 -0.151538,0.248616 -0.151538,0.707965 z m 3.693733,-0.584841 h -0.227307 q -0.05209,-0.142067 -0.123124,-0.222571 -0.07103,-0.08287 -0.161009,-0.116021 -0.08998,-0.03315 -0.220203,-0.03315 -0.189423,0 -0.303076,0.08998 -0.111285,0.08761 -0.111285,0.241513 0,0.108918 0.04499,0.179951 0.04499,0.07103 0.139699,0.132596 0.09471,0.06156 0.333857,0.163376 0.241513,0.104183 0.371741,0.19179 0.132596,0.08761 0.205997,0.203629 0.07577,0.116021 0.07577,0.27703 0,0.187055 -0.06393,0.314915 -0.06393,0.12786 -0.179951,0.208364 -0.116022,0.08051 -0.27703,0.116021 -0.158642,0.03552 -0.348064,0.03552 -0.198893,0 -0.385948,-0.03078 -0.187054,-0.02841 -0.364638,-0.07577 V 21.80217 h 0.232043 q 0.06393,0.217836 0.189422,0.317283 0.125492,0.09708 0.345696,0.09708 0.08524,0 0.165744,-0.01657 0.08287,-0.01894 0.146802,-0.05919 0.06393,-0.04262 0.101815,-0.113654 0.03788,-0.07103 0.03788,-0.177583 0,-0.120757 -0.04735,-0.196526 -0.04736,-0.07577 -0.146803,-0.137331 -0.09945,-0.06393 -0.350431,-0.17048 -0.215468,-0.08998 -0.345695,-0.175215 -0.130228,-0.08524 -0.205997,-0.201261 -0.0734,-0.116022 -0.0734,-0.274663 0,-0.194158 0.104182,-0.336224 0.10655,-0.144435 0.305443,-0.220204 0.198894,-0.07577 0.466453,-0.07577 0.156273,0 0.300708,0.01657 0.146802,0.01421 0.367005,0.05919 z m 1.174419,-1.446712 v 0.459349 h -0.435671 v -0.459349 z m -0.677184,3.075744 q 0.09234,-0.02841 0.130227,-0.04972 0.04025,-0.02131 0.0663,-0.05919 0.02841,-0.03788 0.04262,-0.116021 0.01657,-0.07814 0.01657,-0.243882 v -1.032351 q 0,-0.151538 -0.0047,-0.243881 -0.0047,-0.09234 -0.03315,-0.146802 -0.02841,-0.05683 -0.08761,-0.08287 -0.05683,-0.02841 -0.163376,-0.04736 v -0.125492 l 0.551692,-0.02131 h 0.144434 v 1.692961 q 0,0.203629 0.01894,0.284134 0.01894,0.07814 0.07103,0.120756 0.05446,0.04025 0.175216,0.07103 v 0.116021 h -0.928169 z m 2.348835,-1.250187 0.307811,-0.390684 q 0.04972,-0.06393 0.0805,-0.123124 0.03078,-0.06156 0.03078,-0.125492 0,-0.05446 -0.04025,-0.08998 -0.04025,-0.03552 -0.125493,-0.05209 v -0.116021 h 0.774264 v 0.116021 q -0.08998,0.02604 -0.184687,0.101814 -0.09234,0.07577 -0.227307,0.243881 l -0.49013,0.601416 0.539854,0.726908 q 0.116021,0.156273 0.208364,0.239146 0.09234,0.08287 0.184687,0.118389 v 0.116021 h -0.951847 v -0.116021 q 0.196526,-0.02368 0.196526,-0.146803 0,-0.04972 -0.01658,-0.09471 -0.01657,-0.04499 -0.06156,-0.104182 l -0.343328,-0.478291 -0.364638,0.473555 q -0.04025,0.05209 -0.06393,0.09708 -0.02131,0.04262 -0.02131,0.09708 0,0.06393 0.04262,0.10655 0.04499,0.04025 0.139699,0.04972 v 0.116021 h -0.790838 v -0.116021 q 0.07814,-0.02841 0.139699,-0.07103 0.06393,-0.04262 0.12786,-0.108918 0.0663,-0.06866 0.172848,-0.198893 l 0.492498,-0.610887 -0.504337,-0.691391 q -0.104182,-0.142067 -0.165744,-0.205997 -0.06156,-0.06393 -0.113654,-0.09708 -0.05209,-0.03315 -0.104182,-0.04735 V 20.10211 h 0.928169 v 0.116021 q -0.187054,0.02841 -0.187054,0.146802 0,0.05446 0.02368,0.108918 0.02605,0.05446 0.07814,0.120757 z m 3.996809,-0.378845 h -0.227306 q -0.05209,-0.142067 -0.123125,-0.222571 -0.07103,-0.08287 -0.161009,-0.116021 -0.08998,-0.03315 -0.220203,-0.03315 -0.189422,0 -0.303076,0.08998 -0.111285,0.08761 -0.111285,0.241513 0,0.108918 0.04499,0.179951 0.04499,0.07103 0.139699,0.132596 0.09471,0.06156 0.333856,0.163376 0.241514,0.104183 0.371741,0.19179 0.132596,0.08761 0.205997,0.203629 0.07577,0.116021 0.07577,0.27703 0,0.187055 -0.06393,0.314915 -0.06393,0.12786 -0.179951,0.208364 -0.116021,0.08051 -0.27703,0.116021 -0.158641,0.03552 -0.348064,0.03552 -0.198893,0 -0.385947,-0.03078 -0.187055,-0.02841 -0.364638,-0.07577 V 21.80217 h 0.232042 q 0.06393,0.217836 0.189422,0.317283 0.125492,0.09708 0.345696,0.09708 0.08524,0 0.165744,-0.01657 0.08287,-0.01894 0.146803,-0.05919 0.06393,-0.04262 0.101814,-0.113654 0.03788,-0.07103 0.03788,-0.177583 0,-0.120757 -0.04736,-0.196526 -0.04736,-0.07577 -0.146802,-0.137331 -0.09945,-0.06393 -0.350431,-0.17048 -0.215468,-0.08998 -0.345696,-0.175215 -0.130228,-0.08524 -0.205997,-0.201261 -0.0734,-0.116022 -0.0734,-0.274663 0,-0.194158 0.104182,-0.336224 0.10655,-0.144435 0.305444,-0.220204 0.198893,-0.07577 0.466452,-0.07577 0.156273,0 0.300708,0.01657 0.146802,0.01421 0.367005,0.05919 z m 1.131798,-0.146802 0.0095,0.0024 q 0.184686,-0.187055 0.291236,-0.260456 0.108918,-0.07577 0.2131,-0.113653 0.10655,-0.03788 0.227307,-0.03788 0.130228,0 0.232042,0.03078 0.101815,0.03078 0.177584,0.09471 0.07814,0.06156 0.125492,0.153906 0.04972,0.08998 0.0734,0.217836 0.02368,0.125492 0.02368,0.31965 v 0.892652 q 0,0.205997 0.01657,0.281766 0.01894,0.0734 0.06393,0.116021 0.04736,0.04025 0.187055,0.07814 v 0.116021 h -0.932905 v -0.116021 q 0.09234,-0.02841 0.132596,-0.04972 0.04025,-0.02131 0.0663,-0.05919 0.02841,-0.03788 0.04262,-0.116021 0.01657,-0.0805 0.01657,-0.241514 V 21.16287 q 0,-0.314914 -0.03315,-0.480659 -0.03078,-0.168112 -0.125492,-0.250984 -0.09234,-0.08287 -0.260456,-0.08287 -0.09471,0 -0.17048,0.03315 -0.07577,0.03315 -0.175215,0.118388 -0.09945,0.08524 -0.151538,0.175216 -0.04972,0.08998 -0.04972,0.19179 v 0.906859 q 0,0.161009 0.0071,0.229675 0.0095,0.06866 0.03315,0.116021 0.02368,0.04499 0.07103,0.07577 0.04972,0.02841 0.151538,0.05446 v 0.116021 h -0.93764 v -0.116021 q 0.104182,-0.02841 0.14917,-0.05446 0.04499,-0.02605 0.06867,-0.0663 0.02605,-0.04025 0.03789,-0.116021 0.01184,-0.07577 0.01184,-0.239146 v -1.98183 q 0,-0.227307 -0.0047,-0.317283 -0.0024,-0.08998 -0.01894,-0.151537 -0.01421,-0.06393 -0.04262,-0.09945 -0.02605,-0.03552 -0.0734,-0.05683 -0.04499,-0.02131 -0.165745,-0.04262 v -0.123124 l 0.570635,-0.02368 h 0.142066 z m 3.932879,1.489332 q -0.151537,0.158642 -0.279398,0.248617 -0.125492,0.08998 -0.27703,0.142067 -0.151537,0.04972 -0.333856,0.04972 -0.487763,0 -0.736379,-0.291237 -0.248617,-0.293604 -0.248617,-0.864239 0,-0.352799 0.125492,-0.622725 0.12786,-0.269927 0.36227,-0.416729 0.23441,-0.146803 0.539854,-0.146803 0.239145,0 0.407258,0.07577 0.168112,0.07577 0.267559,0.208365 0.101814,0.130228 0.156273,0.331489 0.05683,0.198893 0.06393,0.520911 h -1.4917 v 0.04262 q 0,0.279398 0.06156,0.471188 0.06393,0.189422 0.205997,0.29834 0.144434,0.10655 0.374109,0.10655 0.194157,0 0.348063,-0.07103 0.156273,-0.0734 0.310179,-0.236778 z m -0.397786,-0.961318 q -0.01421,-0.25572 -0.06393,-0.416729 -0.04972,-0.163376 -0.14917,-0.248616 -0.09945,-0.08761 -0.260456,-0.08761 -0.243881,0 -0.390683,0.196526 -0.144435,0.194157 -0.17048,0.556427 z m 1.50354,0.771896 q 0,0.203629 0.01894,0.284134 0.01894,0.07814 0.07103,0.120756 0.05446,0.04025 0.175215,0.07103 v 0.116021 h -0.940008 v -0.116021 q 0.118389,-0.03078 0.163377,-0.06393 0.04736,-0.03315 0.0663,-0.07814 0.02131,-0.04736 0.02841,-0.125492 0.0095,-0.0805 0.0095,-0.208365 v -1.98183 q 0,-0.227307 -0.0047,-0.317283 -0.0024,-0.08998 -0.01894,-0.151537 -0.01421,-0.06393 -0.04262,-0.09945 -0.02605,-0.03552 -0.0734,-0.05683 -0.04499,-0.02131 -0.165744,-0.04262 v -0.123124 l 0.570634,-0.02368 h 0.142067 z m 1.316485,0 q 0,0.203629 0.01894,0.284134 0.01894,0.07814 0.07103,0.120756 0.05446,0.04025 0.175216,0.07103 v 0.116021 h -0.940008 v -0.116021 q 0.118389,-0.03078 0.163376,-0.06393 0.04736,-0.03315 0.0663,-0.07814 0.02131,-0.04736 0.02841,-0.125492 0.0095,-0.0805 0.0095,-0.208365 v -1.98183 q 0,-0.227307 -0.0047,-0.317283 -0.0024,-0.08998 -0.01894,-0.151537 -0.01421,-0.06393 -0.04262,-0.09945 -0.02605,-0.03552 -0.0734,-0.05683 -0.04499,-0.02131 -0.165745,-0.04262 v -0.123124 l 0.570635,-0.02368 h 0.142067 z m 1.69533,-1.671651 h 0.674816 v 1.205199 q 0,0.27703 0.02131,0.421464 0.02131,0.144435 0.06393,0.217836 0.04262,0.0734 0.120756,0.123124 0.07814,0.04972 0.215468,0.04972 0.08998,0 0.172848,-0.03552 0.08287,-0.03552 0.184687,-0.123124 0.101814,-0.08998 0.144434,-0.177584 0.04499,-0.08761 0.04499,-0.203629 v -0.887917 q 0,-0.134963 -0.0071,-0.203628 -0.0071,-0.06867 -0.02368,-0.108918 -0.01658,-0.04262 -0.04025,-0.06867 -0.02131,-0.02604 -0.06393,-0.04735 -0.04025,-0.02131 -0.132595,-0.04499 v -0.116021 h 0.674817 v 1.617192 q 0,0.182319 0.0071,0.262824 0.0071,0.0805 0.03078,0.12786 0.02368,0.04735 0.0734,0.07814 0.04972,0.02841 0.177584,0.05446 v 0.123125 l -0.542222,0.02368 h -0.144434 l 0.01421,-0.388315 -0.03552,-0.0095 q -0.196526,0.2131 -0.376477,0.312546 -0.177583,0.09945 -0.357534,0.09945 -0.215468,0 -0.355167,-0.08524 -0.139699,-0.08524 -0.208365,-0.253352 -0.06867,-0.17048 -0.06867,-0.478291 v -0.895021 q 0,-0.198893 -0.01657,-0.272294 -0.01421,-0.07577 -0.05919,-0.118389 -0.04262,-0.04499 -0.189422,-0.08287 z m 2.592715,0.118389 q 0.118389,-0.01894 0.19179,-0.0663 0.0734,-0.04736 0.113654,-0.120757 0.04262,-0.07577 0.0663,-0.187054 0.02368,-0.113654 0.04972,-0.329122 h 0.336224 v 0.584842 h 0.764793 v 0.239145 h -0.764793 v 1.053662 q 0,0.229674 0.01894,0.367005 0.01894,0.134964 0.07103,0.2131 0.05209,0.07577 0.118389,0.108918 0.0663,0.03315 0.17048,0.03315 0.09471,0 0.177583,-0.03788 0.08287,-0.04025 0.163377,-0.113654 l 0.10655,0.12786 q -0.168112,0.163377 -0.31965,0.236778 -0.14917,0.0734 -0.310179,0.0734 -0.305443,0 -0.454613,-0.179951 -0.149171,-0.182319 -0.149171,-0.568267 v -1.314117 h -0.350431 z m 2.460121,-1.046558 v 0.459349 h -0.435671 v -0.459349 z m -0.677185,3.075744 q 0.09234,-0.02841 0.130228,-0.04972 0.04025,-0.02131 0.0663,-0.05919 0.02841,-0.03788 0.04262,-0.116021 0.01657,-0.07814 0.01657,-0.243882 v -1.032351 q 0,-0.151538 -0.0047,-0.243881 -0.0047,-0.09234 -0.03315,-0.146802 -0.02841,-0.05683 -0.08761,-0.08287 -0.05683,-0.02841 -0.163377,-0.04736 v -0.125492 l 0.551693,-0.02131 h 0.144434 v 1.692961 q 0,0.203629 0.01894,0.284134 0.01894,0.07814 0.07103,0.120756 0.05446,0.04025 0.175215,0.07103 v 0.116021 h -0.928169 z m 1.979464,-0.475924 q 0,0.203629 0.01894,0.284134 0.01894,0.07814 0.07103,0.120756 0.05446,0.04025 0.175215,0.07103 v 0.116021 h -0.940008 v -0.116021 q 0.118389,-0.03078 0.163377,-0.06393 0.04736,-0.03315 0.0663,-0.07814 0.02131,-0.04736 0.02841,-0.125492 0.0095,-0.0805 0.0095,-0.208365 v -1.98183 q 0,-0.227307 -0.0047,-0.317283 -0.0024,-0.08998 -0.01894,-0.151537 -0.01421,-0.06393 -0.04262,-0.09945 -0.02604,-0.03552 -0.0734,-0.05683 -0.04499,-0.02131 -0.165744,-0.04262 v -0.123124 l 0.570634,-0.02368 h 0.142067 z m 1.361474,-2.59982 v 0.459349 h -0.435671 v -0.459349 z m -0.677184,3.075744 q 0.09234,-0.02841 0.130227,-0.04972 0.04025,-0.02131 0.0663,-0.05919 0.02841,-0.03788 0.04262,-0.116021 0.01658,-0.07814 0.01658,-0.243882 v -1.032351 q 0,-0.151538 -0.0047,-0.243881 -0.0047,-0.09234 -0.03315,-0.146802 -0.02841,-0.05683 -0.08761,-0.08287 -0.05683,-0.02841 -0.163376,-0.04736 v -0.125492 l 0.551692,-0.02131 h 0.144435 v 1.692961 q 0,0.203629 0.01894,0.284134 0.01894,0.07814 0.07103,0.120756 0.05446,0.04025 0.175216,0.07103 v 0.116021 h -0.928169 z m 1.205196,-2.029186 q 0.118389,-0.01894 0.19179,-0.0663 0.0734,-0.04736 0.113654,-0.120757 0.04262,-0.07577 0.0663,-0.187054 0.02368,-0.113654 0.04972,-0.329122 h 0.336224 v 0.584842 h 0.764793 v 0.239145 h -0.764793 v 1.053662 q 0,0.229674 0.01894,0.367005 0.01894,0.134964 0.07103,0.2131 0.05209,0.07577 0.118389,0.108918 0.0663,0.03315 0.17048,0.03315 0.09471,0 0.177583,-0.03788 0.08287,-0.04025 0.163377,-0.113654 l 0.10655,0.12786 q -0.168112,0.163377 -0.31965,0.236778 -0.14917,0.0734 -0.310179,0.0734 -0.305443,0 -0.454613,-0.179951 -0.149171,-0.182319 -0.149171,-0.568267 v -1.314117 h -0.350431 z m 2.784506,2.339364 q -0.130227,0.293605 -0.253352,0.475924 -0.123124,0.182319 -0.272294,0.274662 -0.146803,0.09234 -0.350432,0.09234 -0.130227,0 -0.293604,-0.03078 v -0.46882 h 0.210732 q 0.02841,0.09708 0.07103,0.134964 0.04262,0.03788 0.123125,0.03788 0.07103,0 0.125492,-0.02841 0.05683,-0.02605 0.116021,-0.09234 0.06156,-0.0663 0.142067,-0.203628 0.08287,-0.137332 0.184687,-0.348064 L 52.245634,20.62065 q -0.06393,-0.172848 -0.104182,-0.241513 -0.03789,-0.06867 -0.08287,-0.104182 -0.04499,-0.03552 -0.137331,-0.05683 v -0.116021 h 0.963686 v 0.116021 q -0.111286,0.02604 -0.156273,0.05209 -0.04499,0.02368 -0.0663,0.06393 -0.02131,0.03788 -0.02131,0.09945 0,0.06393 0.01421,0.132595 0.01657,0.06867 0.04972,0.161009 l 0.421464,1.186257 0.473556,-1.136534 q 0.04025,-0.09471 0.06156,-0.172847 0.02368,-0.08051 0.02368,-0.14917 0,-0.101815 -0.05683,-0.153906 -0.05446,-0.05209 -0.19179,-0.08287 v -0.116021 h 0.885549 v 0.116021 q -0.09234,0.01894 -0.142066,0.05919 -0.04972,0.03788 -0.09945,0.123125 -0.04972,0.08287 -0.118389,0.23441 z m 3.142044,-0.786102 q 0,0.203629 0.01894,0.284134 0.01894,0.07814 0.07103,0.120756 0.05446,0.04025 0.175215,0.07103 v 0.116021 h -0.940007 v -0.116021 q 0.118388,-0.03078 0.163376,-0.06393 0.04736,-0.03315 0.0663,-0.07814 0.02131,-0.04736 0.02841,-0.125492 0.0095,-0.0805 0.0095,-0.208365 v -1.98183 q 0,-0.227307 -0.0047,-0.317283 -0.0024,-0.08998 -0.01894,-0.151537 -0.01421,-0.06393 -0.04262,-0.09945 -0.02605,-0.03552 -0.0734,-0.05683 -0.04499,-0.02131 -0.165745,-0.04262 v -0.123124 l 0.570635,-0.02368 h 0.142066 z m 1.361471,-2.59982 v 0.459349 h -0.435672 v -0.459349 z m -0.677185,3.075744 q 0.09234,-0.02841 0.130228,-0.04972 0.04025,-0.02131 0.0663,-0.05919 0.02841,-0.03788 0.04262,-0.116021 0.01657,-0.07814 0.01657,-0.243882 v -1.032351 q 0,-0.151538 -0.0047,-0.243881 -0.0047,-0.09234 -0.03315,-0.146802 -0.02841,-0.05683 -0.08761,-0.08287 -0.05683,-0.02841 -0.163377,-0.04736 v -0.125492 l 0.551692,-0.02131 h 0.144435 v 1.692961 q 0,0.203629 0.01894,0.284134 0.01894,0.07814 0.07103,0.120756 0.05446,0.04025 0.175215,0.07103 v 0.116021 H 56.93147 Z m 1.943947,-1.775834 0.0095,0.0024 q 0.165745,-0.172848 0.274663,-0.250985 0.111285,-0.07814 0.227306,-0.118389 0.118389,-0.04262 0.258088,-0.04262 0.253353,0 0.433304,0.130228 0.182319,0.12786 0.279397,0.385948 0.09945,0.258088 0.09945,0.632197 0,0.385948 -0.118389,0.653506 -0.116021,0.265192 -0.345695,0.402523 -0.227307,0.134963 -0.539854,0.134963 -0.175215,0 -0.331489,-0.03315 -0.153905,-0.03078 -0.324385,-0.111285 l -0.165745,0.144434 -0.163377,-0.03788 v -2.573775 q 0,-0.227307 -0.0047,-0.317283 -0.0024,-0.08998 -0.01894,-0.151537 -0.01421,-0.06393 -0.04262,-0.09945 -0.02605,-0.03552 -0.0734,-0.05683 -0.04499,-0.02131 -0.165745,-0.04262 v -0.123124 l 0.573002,-0.02368 h 0.139699 z m 0,1.039455 q 0,0.182318 0.01658,0.291236 0.01657,0.10655 0.05446,0.177584 0.04025,0.07103 0.113653,0.130227 0.07577,0.0592 0.168112,0.08287 0.09234,0.02131 0.205997,0.02131 0.284133,0 0.430936,-0.232043 0.146802,-0.232042 0.146802,-0.696126 0,-0.46882 -0.134963,-0.703231 -0.132596,-0.236777 -0.402523,-0.236777 -0.134963,0 -0.229674,0.04262 -0.09471,0.04025 -0.189423,0.12786 -0.09234,0.08761 -0.137331,0.172847 -0.04262,0.08524 -0.04262,0.194158 z m 2.696902,-1.018145 0.03315,0.0071 q 0.130228,-0.158641 0.241513,-0.248616 0.111286,-0.09234 0.239146,-0.142067 0.130228,-0.04972 0.293604,-0.04972 0.137331,0 0.248617,0.01421 v 0.544589 H 62.36079 q -0.05683,-0.12786 -0.120757,-0.184687 -0.06393,-0.05919 -0.175215,-0.05919 -0.08524,0 -0.17048,0.04972 -0.08287,0.04972 -0.161009,0.144435 -0.07814,0.09471 -0.108918,0.177583 -0.02841,0.08287 -0.02841,0.196526 v 0.828722 q 0,0.215468 0.02605,0.29834 0.02605,0.08051 0.08524,0.118389 0.06156,0.03788 0.182319,0.05919 v 0.116021 h -0.954214 v -0.116021 q 0.08998,-0.02841 0.12786,-0.04972 0.04025,-0.02131 0.06867,-0.05919 0.02841,-0.03788 0.04262,-0.116021 0.01421,-0.07814 0.01421,-0.243882 v -1.032351 q 0,-0.151538 -0.0047,-0.243881 -0.0047,-0.09234 -0.03315,-0.146802 -0.02841,-0.05683 -0.08761,-0.08287 -0.05683,-0.02841 -0.163377,-0.04736 v -0.123125 l 0.55406,-0.02368 h 0.144435 z m 2.65191,1.531952 -0.03552,-0.0095 q -0.205997,0.210733 -0.388316,0.29834 -0.179951,0.08761 -0.38358,0.08761 -0.179951,0 -0.317282,-0.06866 -0.137331,-0.07103 -0.210732,-0.196526 -0.0734,-0.12786 -0.0734,-0.293605 0,-0.345695 0.34096,-0.53275 0.343328,-0.189422 1.027616,-0.220203 v -0.153906 q 0,-0.246249 -0.04736,-0.388315 -0.04736,-0.142067 -0.14917,-0.208365 -0.101815,-0.0663 -0.272295,-0.0663 -0.184686,0 -0.29834,0.09708 -0.111285,0.09708 -0.168112,0.291237 h -0.310179 v -0.307811 q 0.227307,-0.118389 0.378845,-0.172848 0.151538,-0.05683 0.303075,-0.08761 0.151538,-0.03315 0.307811,-0.03315 0.234411,0 0.376477,0.07577 0.142067,0.0734 0.2131,0.227307 0.07103,0.153906 0.07103,0.464085 V 21.653 q 0,0.175216 0.0024,0.248617 0.0024,0.07103 0.01421,0.132596 0.01184,0.06156 0.03552,0.09945 0.02368,0.03552 0.06866,0.06156 0.04736,0.02604 0.151538,0.05446 v 0.116021 H 64.21239 Z m -0.04025,-0.741114 q -0.480659,0.0047 -0.719805,0.12786 -0.239146,0.123124 -0.239146,0.371741 0,0.134963 0.05446,0.2131 0.05446,0.07814 0.137331,0.108918 0.08287,0.02841 0.196526,0.02841 0.161009,0 0.291237,-0.07814 0.132595,-0.07814 0.205996,-0.198894 0.0734,-0.120757 0.0734,-0.239145 z m 1.678755,-0.790838 0.03315,0.0071 q 0.130228,-0.158641 0.241513,-0.248616 0.111286,-0.09234 0.239146,-0.142067 0.130228,-0.04972 0.293604,-0.04972 0.137331,0 0.248617,0.01421 v 0.544589 h -0.267559 q -0.05683,-0.12786 -0.120757,-0.184687 -0.06393,-0.05919 -0.175215,-0.05919 -0.08524,0 -0.17048,0.04972 -0.08287,0.04972 -0.161009,0.144435 -0.07814,0.09471 -0.108918,0.177583 -0.02841,0.08287 -0.02841,0.196526 v 0.828722 q 0,0.215468 0.02604,0.29834 0.02605,0.08051 0.08524,0.118389 0.06156,0.03788 0.182319,0.05919 v 0.116021 H 65.2258 v -0.116021 q 0.08997,-0.02841 0.12786,-0.04972 0.04025,-0.02131 0.06866,-0.05919 0.02841,-0.03788 0.04262,-0.116021 0.01421,-0.07814 0.01421,-0.243882 v -1.032351 q 0,-0.151538 -0.0047,-0.243881 -0.0047,-0.09234 -0.03315,-0.146802 -0.02841,-0.05683 -0.08761,-0.08287 -0.05683,-0.02841 -0.163377,-0.04736 v -0.123125 l 0.55406,-0.02368 h 0.144434 z m 2.367778,2.064702 q -0.130227,0.293605 -0.253352,0.475924 -0.123124,0.182319 -0.272294,0.274662 -0.146803,0.09234 -0.350432,0.09234 -0.130227,0 -0.293604,-0.03078 v -0.46882 h 0.210732 q 0.02841,0.09708 0.07103,0.134964 0.04262,0.03788 0.123124,0.03788 0.07103,0 0.125492,-0.02841 0.05683,-0.02605 0.116021,-0.09234 0.06156,-0.0663 0.142067,-0.203628 0.08287,-0.137332 0.184687,-0.348064 L 67.371005,20.62065 q -0.06393,-0.172848 -0.104182,-0.241513 -0.03789,-0.06867 -0.08287,-0.104182 -0.04499,-0.03552 -0.137331,-0.05683 v -0.116021 h 0.963686 v 0.116021 q -0.111286,0.02604 -0.156273,0.05209 -0.04499,0.02368 -0.0663,0.06393 -0.02131,0.03788 -0.02131,0.09945 0,0.06393 0.01421,0.132595 0.01658,0.06867 0.04972,0.161009 l 0.421464,1.186257 0.473556,-1.136534 q 0.04025,-0.09471 0.06156,-0.172847 0.02368,-0.08051 0.02368,-0.14917 0,-0.101815 -0.05683,-0.153906 -0.05446,-0.05209 -0.19179,-0.08287 v -0.116021 h 0.885549 v 0.116021 q -0.09234,0.01894 -0.142066,0.05919 -0.04972,0.03788 -0.09945,0.123125 -0.04972,0.08287 -0.118389,0.23441 z"
       id="text96"
       style="font-size:4.84921px;font-family:Cambria;-inkscape-font-specification:'Cambria, Normal';font-variant-ligatures:discretionary-ligatures;fill:#ece7e1;stroke-width:0.254422"
       aria-label="tiny posix shell utility library" />
    <path
       id="rect1-4"
       style="fill:none;fill-opacity:1;stroke:#ddd8d4;stroke-width:0.529167;stroke-dasharray:none;stroke-opacity:1"
       d="M 3.0509766,0 C 1.3607356,0 3e-7,1.360736 3e-7,3.050977 v 23.746354 c 0,1.690241 1.3607353,3.050976 3.0509763,3.050976 H 206.94913 c 1.69024,0 3.05097,-1.360735 3.05097,-3.050976 V 3.050977 C 210.0001,1.360736 208.63937,0 206.94913,0 Z" />
  </g>
</svg>
